<svg width="81.28" height="22.3" viewBox="0 0 110 23" fill="none" xmlns="http://www.w3.org/2000/svg">
    <circle cx="98.4999" cy="11.4998" r="11.5" fill="#A5FFBE"/>
    <path d="M89.1561 8.35509V7.90601H91.8906V8.35509L91.1017 8.45064C91.0957 8.84558 91.0897 9.24689 91.0837 9.65457C91.0837 10.0559 91.0837 10.4604 91.0837 10.8681V11.4509C91.0837 11.7885 91.0837 12.1516 91.0837 12.5402C91.0897 12.9288 91.0957 13.3237 91.1017 13.725H92.9127L93.1637 12.4064H93.7913L93.7017 14.241H89.1561V13.7919L89.9092 13.7059C89.9212 13.3046 89.9272 12.9097 89.9272 12.5211C89.9272 12.1261 89.9272 11.7471 89.9272 11.384V10.8681C89.9272 10.454 89.9272 10.0463 89.9272 9.64502C89.9272 9.23734 89.9212 8.83603 89.9092 8.44109L89.1561 8.35509Z" fill="#1E252B"/>
    <path d="M96.5784 14.3748C96.172 14.3748 95.8044 14.2792 95.4757 14.0881C95.1529 13.897 94.8959 13.6199 94.7046 13.2568C94.5134 12.8937 94.4177 12.4606 94.4177 11.9573C94.4177 11.4477 94.5163 11.0114 94.7136 10.6483C94.9168 10.2852 95.1828 10.0081 95.5115 9.81701C95.8403 9.62591 96.1959 9.53036 96.5784 9.53036C96.961 9.53036 97.3166 9.62591 97.6453 9.81701C97.9741 10.0081 98.24 10.2852 98.4433 10.6483C98.6465 11.005 98.7481 11.4414 98.7481 11.9573C98.7481 12.4669 98.6495 12.9033 98.4522 13.2664C98.261 13.6231 98.001 13.897 97.6722 14.0881C97.3495 14.2792 96.9849 14.3748 96.5784 14.3748ZM96.5784 13.9066C96.9012 13.9066 97.1462 13.7473 97.3136 13.4288C97.4869 13.1103 97.5736 12.623 97.5736 11.9669C97.5736 10.6547 97.2419 9.99856 96.5784 9.99856C95.921 9.99856 95.5922 10.6547 95.5922 11.9669C95.5922 12.623 95.6759 13.1103 95.8433 13.4288C96.0106 13.7473 96.2557 13.9066 96.5784 13.9066Z" fill="#1E252B"/>
    <path d="M101.604 14.3748C101.198 14.3748 100.83 14.2792 100.501 14.0881C100.179 13.897 99.9215 13.6199 99.7302 13.2568C99.539 12.8937 99.4433 12.4606 99.4433 11.9573C99.4433 11.4477 99.542 11.0114 99.7392 10.6483C99.9424 10.2852 100.208 10.0081 100.537 9.81701C100.866 9.62591 101.222 9.53036 101.604 9.53036C101.987 9.53036 102.342 9.62591 102.671 9.81701C103 10.0081 103.266 10.2852 103.469 10.6483C103.672 11.005 103.774 11.4414 103.774 11.9573C103.774 12.4669 103.675 12.9033 103.478 13.2664C103.287 13.6231 103.027 13.897 102.698 14.0881C102.375 14.2792 102.01 14.3748 101.604 14.3748ZM101.604 13.9066C101.927 13.9066 102.172 13.7473 102.339 13.4288C102.513 13.1103 102.599 12.623 102.599 11.9669C102.599 10.6547 102.268 9.99856 101.604 9.99856C100.947 9.99856 100.618 10.6547 100.618 11.9669C100.618 12.623 100.702 13.1103 100.869 13.4288C101.036 13.7473 101.281 13.9066 101.604 13.9066Z" fill="#1E252B"/>
    <path d="M105.941 14.3748C105.583 14.3748 105.302 14.2792 105.099 14.0881C104.895 13.897 104.794 13.5912 104.794 13.1708C104.794 13.0243 104.794 12.8874 104.794 12.76C104.8 12.6262 104.803 12.4669 104.803 12.2822V10.247H104.139V9.75012L104.866 9.65457L105.206 8.34554H105.932L105.897 9.66413H106.972V10.247H105.888V13.0657C105.888 13.3014 105.929 13.4734 106.013 13.5817C106.103 13.69 106.219 13.7441 106.363 13.7441C106.524 13.7441 106.706 13.6645 106.91 13.5052L107.125 13.7441C107.011 13.9416 106.856 14.0977 106.659 14.2123C106.461 14.3206 106.222 14.3748 105.941 14.3748Z" fill="#1E252B"/>
    <path d="M9.6 4.91199L6.656 13.776H12.512L9.6 4.91199ZM0.223999 22V20.496L2.848 20.112L9.536 0.655989H12.16L18.848 20.272L21.024 20.528V22H11.776V20.528L14.592 20.176L13.056 15.44H6.08L4.544 20.08L7.328 20.496V22H0.223999Z" fill="white"/>
    <path d="M32.5677 22.544C30.4131 22.544 28.5144 22.0853 26.8717 21.168C25.2291 20.2293 23.9491 18.928 23.0317 17.264C22.1144 15.5787 21.6557 13.616 21.6557 11.376C21.6557 9.17866 22.1037 7.24799 22.9997 5.58399C23.9171 3.89866 25.2077 2.58666 26.8717 1.64799C28.5571 0.709323 30.5411 0.23999 32.8237 0.23999C34.0184 0.23999 35.1384 0.36799 36.1838 0.623989C37.2291 0.858657 38.2104 1.23199 39.1278 1.74399L39.2558 6.54399H37.0478L36.2798 2.63999C35.3198 2.17066 34.3171 1.93599 33.2718 1.93599C31.9491 1.93599 30.7437 2.28799 29.6557 2.99199C28.5891 3.69599 27.7357 4.75199 27.0957 6.15999C26.4771 7.54666 26.1677 9.28532 26.1677 11.376C26.1677 14.4693 26.8291 16.816 28.1517 18.416C29.4744 20.016 31.2024 20.816 33.3358 20.816C33.7838 20.816 34.1998 20.784 34.5838 20.72C34.9678 20.656 35.3411 20.5707 35.7038 20.464V19.216C35.7038 18.2773 35.6931 17.3387 35.6718 16.4C35.6718 15.44 35.6611 14.4907 35.6398 13.552L32.5358 13.232V11.728H41.5598V13.232L39.7678 13.424C39.7464 14.4053 39.7251 15.376 39.7038 16.336C39.7038 17.296 39.7038 18.2773 39.7038 19.28V20.656C38.5944 21.2533 37.4744 21.712 36.3438 22.032C35.2131 22.3733 33.9544 22.544 32.5677 22.544Z" fill="white"/>
    <path d="M42.9668 2.28799V0.783989H52.7267V2.28799L49.9108 2.60799C49.8894 3.93066 49.8681 5.27466 49.8467 6.63999C49.8467 7.98399 49.8467 9.33866 49.8467 10.704V12.656C49.8467 13.7867 49.8467 15.0027 49.8467 16.304C49.8681 17.6053 49.8894 18.928 49.9108 20.272H56.3748L57.2708 15.856H59.5107L59.1908 22H42.9668V20.496L45.6548 20.208C45.6974 18.864 45.7188 17.5413 45.7188 16.24C45.7188 14.9173 45.7188 13.648 45.7188 12.432V10.704C45.7188 9.31732 45.7188 7.95199 45.7188 6.60799C45.7188 5.24266 45.6974 3.89866 45.6548 2.57599L42.9668 2.28799Z" fill="white"/>
    <path d="M68.2842 11.824C68.2842 13.296 68.2842 14.736 68.2842 16.144C68.3056 17.552 68.3269 18.9493 68.3483 20.336H70.1722C72.3482 20.336 74.0336 19.5573 75.2282 18C76.4229 16.4427 77.0202 14.2453 77.0202 11.408C77.0202 8.48532 76.4336 6.25599 75.2603 4.71999C74.0869 3.18399 72.4549 2.41599 70.3643 2.41599H68.3483C68.3269 3.78132 68.3056 5.15732 68.2842 6.54399C68.2842 7.93066 68.2842 9.31732 68.2842 10.704V11.824ZM61.4043 2.28799V0.783989H70.8763C73.0309 0.783989 74.8976 1.19999 76.4762 2.03199C78.0762 2.86399 79.3136 4.06932 80.1882 5.64799C81.0629 7.22666 81.5003 9.13599 81.5003 11.376C81.5003 13.6373 81.0202 15.5573 80.0602 17.136C79.1002 18.7147 77.7776 19.92 76.0923 20.752C74.4069 21.584 72.4656 22 70.2682 22H61.4043V20.496L64.0922 20.208C64.1349 18.864 64.1562 17.4987 64.1562 16.112C64.1562 14.7253 64.1562 13.296 64.1562 11.824V10.704C64.1562 9.35999 64.1562 8.01599 64.1562 6.67199C64.1562 5.30666 64.1349 3.94132 64.0922 2.57599L61.4043 2.28799Z" fill="white"/>
</svg>
