<svg width="206" height="204" viewBox="0 0 206 204" fill="none" xmlns="http://www.w3.org/2000/svg">
    <g filter="url(#filter0_f_41_19)">
        <path d="M28.2726 182.063C28.2887 182.436 28.4476 182.789 28.7173 183.047C28.9865 183.306 29.3454 183.45 29.7186 183.45C29.7393 183.45 29.7609 183.45 29.7812 183.45H42.1701C42.5607 183.451 42.9462 183.362 43.297 183.191C43.6478 183.02 43.9547 182.771 44.1939 182.462C44.4336 182.154 44.5993 181.795 44.6783 181.412C44.7574 181.03 44.7481 180.635 44.6504 180.257C41.2689 167.377 44.2633 156.086 46.1269 150.929C47.0889 148.184 48.6972 145.711 50.8157 143.718C55.3135 139.573 60.7662 138.805 65.674 139.362C65.7586 139.375 82.4522 141.92 87.4475 159.732C87.535 160.106 87.7675 160.43 88.0938 160.633C88.4201 160.835 88.8136 160.9 89.1877 160.812C89.5618 160.725 89.8855 160.493 90.0884 160.167C90.2909 159.84 90.3556 159.447 90.2681 159.073C87.1643 145.8 78.3724 138.44 71.543 134.602C67.1399 132.1 62.35 130.35 57.3708 129.425C51.1057 128.424 46.3953 126.359 43.2395 123.231C40.9198 118.709 40.8526 113.627 43.431 111.185C46.0804 108.672 50.1306 110.136 50.1306 110.136C50.4429 112.2 51.0355 114.21 51.8919 116.113C52.6426 118.132 53.7885 119.98 55.2628 121.55C59.3549 125.946 64.9001 127.387 65.6098 127.556C78.8373 131.665 87.8029 140.035 92.2589 152.433C94.2895 158.103 95.2253 164.107 95.0165 170.126C95.0131 170.164 95.0119 170.202 95.0119 170.24L95.0119 182.006C95.0089 182.199 95.044 182.39 95.115 182.568C95.1864 182.747 95.2925 182.909 95.4274 183.047C95.5622 183.184 95.7228 183.293 95.9004 183.367C96.0779 183.441 96.2681 183.479 96.4604 183.479C96.6527 183.479 96.843 183.441 97.0205 183.367C97.1976 183.293 97.3586 183.184 97.4935 183.047C97.6283 182.909 97.7344 182.747 97.8058 182.568C97.8768 182.39 97.9119 182.199 97.9086 182.006L97.9086 170.289C97.9255 170.049 97.9745 169.222 97.9614 167.949L98.4635 145.816C98.5903 145.313 98.7142 144.807 98.8494 144.306C102.669 130.198 99.6525 112.04 99.6525 112.04C107.383 126.728 104.786 140.149 103.193 148.555C102.616 151.6 101.957 154.648 101.957 157.78L101.957 182C101.954 182.192 101.989 182.383 102.06 182.562C102.131 182.741 102.237 182.903 102.372 183.04C102.507 183.177 102.668 183.286 102.845 183.361C103.023 183.435 103.213 183.473 103.405 183.473C103.597 183.473 103.788 183.435 103.965 183.361C104.142 183.286 104.303 183.177 104.438 183.04C104.573 182.903 104.679 182.741 104.751 182.562C104.822 182.383 104.857 182.192 104.853 182L104.853 157.78C104.852 154.923 105.233 152.078 105.987 149.322C107.064 145.399 107.247 138.924 107.466 131.94C111.217 135.354 115.873 137.612 120.876 138.443C120.387 140.337 120.13 142.282 120.112 144.238C120.107 144.622 120.254 144.992 120.521 145.268C120.789 145.543 121.155 145.701 121.539 145.707H121.56C121.941 145.707 122.306 145.557 122.577 145.29C122.848 145.023 123.003 144.66 123.009 144.279C123.066 140.31 124.104 137.839 124.125 137.788C124.128 137.781 124.129 137.774 124.132 137.768C124.135 137.761 124.141 137.751 124.144 137.742C124.438 136.967 124.918 136.276 125.541 135.73C126.038 135.302 126.622 134.989 127.252 134.812C127.883 134.635 128.544 134.598 129.19 134.703C129.909 134.813 130.596 135.076 131.204 135.475C131.811 135.874 132.326 136.399 132.712 137.015C133.176 137.764 133.515 138.582 133.718 139.44C130.094 145.653 129.573 158.14 129.829 168.023V168.026C129.829 168.106 129.834 168.185 129.836 168.264C129.86 169.724 129.763 177.501 125.144 181.478C124.968 181.623 124.84 181.82 124.779 182.041C124.718 182.261 124.726 182.495 124.803 182.711C124.88 182.926 125.021 183.113 125.208 183.245C125.395 183.378 125.617 183.449 125.846 183.451H132.169H139.206C139.232 183.451 139.258 183.451 139.284 183.451C139.654 183.45 140.011 183.308 140.28 183.052C140.549 182.797 140.709 182.448 140.729 182.078C141.275 171.722 140.644 161.192 139.968 153.831H141.807C142.414 154.782 143.306 155.517 144.356 155.929C144.404 170.78 144.329 181.882 144.328 181.992C144.326 182.376 144.476 182.745 144.746 183.019C145.015 183.292 145.382 183.447 145.766 183.451H145.776C146.158 183.451 146.525 183.299 146.796 183.031C147.067 182.761 147.221 182.396 147.224 182.014C147.224 181.933 147.263 176.276 147.266 167.657L152.624 164.888C152.568 171.87 152.468 177.593 152.323 181.955C152.317 182.145 152.348 182.335 152.415 182.513C152.482 182.691 152.583 182.854 152.713 182.993C152.843 183.132 152.999 183.244 153.172 183.323C153.346 183.401 153.533 183.445 153.723 183.451H153.771C154.147 183.451 154.508 183.304 154.778 183.043C155.048 182.782 155.206 182.426 155.218 182.051C155.425 175.814 155.543 166.834 155.568 155.369C156.543 154.79 157.351 153.967 157.912 152.983C158.474 151.998 158.77 150.883 158.771 149.75V141.792C158.77 140.652 158.47 139.531 157.903 138.542C157.335 137.553 156.518 136.729 155.534 136.153C155.446 118.206 155.228 101.05 155.104 92.3731C155.079 89.8365 155.517 87.3169 156.399 84.9384C158.839 78.0059 160.639 70.8651 161.778 63.6046C161.828 63.2609 161.753 62.911 161.566 62.618C157.368 56.0393 148.04 49.7827 147.644 49.5198C147.373 49.3389 147.048 49.2552 146.723 49.2818C146.399 49.3081 146.092 49.4433 145.853 49.6656C136.876 58.0348 134.9 71.1656 134.821 71.7202C134.771 72.0668 134.849 72.4197 135.039 72.7135C137.849 77.0536 142.84 80.6004 145.034 82.0299L144.35 83.6649C143.328 86.1258 142.873 88.7857 143.021 91.447C143.606 101.832 144.008 116.706 144.216 135.665C143.024 136.175 142.059 137.101 141.499 138.27H136.406C136.125 137.284 135.707 136.341 135.165 135.47C134.556 134.502 133.747 133.677 132.79 133.05C131.834 132.423 130.754 132.01 129.624 131.839C128.566 131.675 127.486 131.741 126.456 132.033C125.426 132.325 124.471 132.835 123.657 133.53C122.957 134.132 122.372 134.856 121.928 135.665C116.383 134.881 111.303 132.136 107.61 127.926C107.558 127.869 107.502 127.816 107.441 127.768C107.099 120.34 105.06 112.799 99.4894 107.479C99.4653 107.183 99.4471 106.891 99.4171 106.588C99.2831 105.113 98.9213 103.669 98.3448 102.305C97.3227 99.9354 96.0513 98.8765 94.9003 98.4521C94.7122 95.5043 94.3068 92.5738 93.688 89.6856C107.718 91.6693 116.694 88.3427 121.917 84.9515C128.402 80.7441 130.69 75.5907 130.784 75.373C130.874 75.1663 130.914 74.9419 130.902 74.717C130.89 74.4926 130.825 74.2736 130.713 74.0783C130.602 73.8831 130.446 73.7161 130.258 73.5914C130.071 73.4667 129.857 73.3873 129.634 73.3598C118.148 71.9374 105.303 72.0296 94.7126 72.5529C94.3009 69.2124 93.2074 65.9919 91.5002 63.0914C89.793 60.191 87.5083 57.6722 84.7875 55.6906C79.9186 52.0449 74.3412 50.2861 70.5197 49.453C69.0217 49.1314 67.4624 49.2476 66.0287 49.7882C64.5949 50.3288 63.3471 51.2706 62.4341 52.5014C57.5335 59.0975 53.6917 60.877 51.3318 61.2088C49.0772 61.525 47.8273 60.5917 47.7931 60.5659C47.5695 60.3824 47.2956 60.2709 47.0073 60.2442C46.7191 60.218 46.4299 60.2789 46.1763 60.4188C45.9231 60.5583 45.7173 60.7709 45.5858 61.0287C45.4544 61.2861 45.4028 61.5774 45.4383 61.8648C45.5617 62.8869 45.7659 63.8979 46.0495 64.8879C46.4456 66.2675 47.1595 67.5352 48.1342 68.5893C49.1085 69.6431 50.3165 70.4542 51.6611 70.9568C53.0289 71.4818 54.5003 71.6792 55.9577 71.5333C57.4152 71.3875 58.8185 70.9023 60.0544 70.1169C61.2718 69.351 62.3196 68.7643 63.1489 68.3311L62.7292 75.7644C59.2407 76.3139 56.0888 76.8968 53.4098 77.4924C38.3106 80.8481 31.9533 78.9532 31.9001 78.9367C31.6029 78.8395 31.2817 78.8412 30.9854 78.9413C30.6891 79.0415 30.4329 79.2355 30.2558 79.4934C30.0787 79.7512 29.99 80.0598 30.0026 80.3726C30.0153 80.6854 30.129 80.9855 30.3264 81.2281C36.2204 88.4615 43.4661 90.6933 50.1652 90.6933C53.3218 90.6654 56.4616 90.2237 59.5028 89.3787C59.275 90.0272 59.1 90.6929 58.9804 91.37C54.0603 92.2154 44.1817 94.9726 38.6068 103.751C37.3849 105.629 36.5526 107.733 36.1591 109.939C35.766 112.144 35.8197 114.406 36.3172 116.59C36.799 118.578 37.6089 120.471 38.7142 122.192C37.4981 129.104 35.7233 135.907 33.4065 142.532C27.3921 159.65 28.2337 181.156 28.2726 182.063ZM146.999 52.5987C149.382 54.2979 155.608 58.9859 158.831 63.7272C158.464 66.0143 156.867 75.2137 153.681 83.9455C152.679 86.655 152.181 89.525 152.212 92.4141C152.332 100.941 152.545 117.659 152.634 135.265C152.498 135.257 152.363 135.244 152.224 135.244H147.109C146.898 116.427 146.539 101.638 145.913 91.2851C145.75 88.5118 146.436 85.7551 147.878 83.3808C149.617 80.3848 153.513 73.0905 153.144 66.5465C153.065 64.9766 152.555 63.4592 151.671 62.1603C151.31 61.6285 150.826 61.1923 150.26 60.8897C149.694 60.5866 149.062 60.426 148.42 60.4213C147.778 60.4167 147.144 60.5684 146.573 60.8635C146.003 61.1585 145.512 61.5875 145.145 62.1142C143.665 64.2931 142.661 66.7599 142.198 69.3531C142.116 69.7285 142.181 70.1207 142.379 70.45C142.578 70.7789 142.894 71.0198 143.264 71.1229C143.455 71.1686 143.653 71.1749 143.847 71.1419C144.041 71.109 144.225 71.0367 144.39 70.9297C144.555 70.8232 144.697 70.6842 144.806 70.521C144.915 70.3583 144.99 70.1744 145.027 69.9817C145.33 68.192 145.916 66.4619 146.763 64.857C146.911 64.5852 147.13 64.3599 147.398 64.2052C147.666 64.0505 147.971 63.9732 148.28 63.9812C148.589 63.9892 148.89 64.0822 149.149 64.2505C149.408 64.4187 149.616 64.6554 149.749 64.9344C150.025 65.4691 150.194 66.0515 150.249 66.6505C150.366 68.2727 150.259 69.903 149.932 71.4962C149.479 73.0102 148.309 74.9351 145.293 75.2179C143.977 75.3464 142.649 75.1469 141.428 74.6376C140.208 74.1282 139.132 73.3247 138.298 72.2984C138.12 72.0676 137.947 71.8335 137.782 71.5993C138.227 69.2136 140.4 59.3617 146.999 52.5987ZM143.869 140.56C143.869 139.919 144.124 139.304 144.578 138.85C145.031 138.397 145.646 138.142 146.287 138.142H152.226C153.194 138.142 154.123 138.528 154.807 139.212C155.491 139.896 155.876 140.824 155.877 141.792V149.749C155.876 150.717 155.491 151.645 154.807 152.33C154.123 153.014 153.194 153.399 152.226 153.4H146.287C145.646 153.399 145.031 153.144 144.578 152.691C144.124 152.238 143.869 151.623 143.869 150.982V140.56ZM136.072 141.168H140.972V150.935H133.384C133.898 147.025 134.744 143.564 136.072 141.167V141.168ZM62.7782 96.7855C61.8432 96.0221 61.6471 94.4772 61.6509 93.9286C61.6082 92.0049 62.1285 90.1108 63.1472 88.4789C63.9 88.3187 64.6575 88.1771 65.4183 88.0477C66.377 89.3031 67.1484 90.6912 67.708 92.1685C67.9654 92.8613 68.4202 93.4632 69.0158 93.9007C69.6114 94.3381 70.3219 94.5922 71.0595 94.6306C71.1394 94.6357 71.2188 94.6378 71.2983 94.6378C71.9907 94.6416 72.6708 94.4535 73.263 94.0947C73.8547 93.7358 74.3362 93.2201 74.6532 92.6047C75.5349 90.9304 76.1393 89.1243 76.4428 87.2569C80.3759 87.3473 84.2908 87.8233 88.131 88.6775C88.9691 88.8639 89.787 89.0271 90.5944 89.1788C90.7368 89.7465 90.8729 90.3247 90.9968 90.9245C90.4054 91.0961 89.823 91.2977 89.2515 91.5285C88.8973 91.6773 88.617 91.9605 88.4716 92.3164C88.3267 92.6719 88.3284 93.0709 88.4771 93.4251C88.6259 93.7793 88.9095 94.06 89.265 94.205C89.6209 94.3504 90.0195 94.3483 90.3737 94.1995C90.3805 94.1965 90.8286 94.0122 91.4989 93.8005C91.7044 95.2008 91.8654 96.6697 91.9816 98.207H89.678C88.489 98.2011 87.3147 98.4724 86.2483 98.9987C85.1819 99.5253 84.2528 100.293 83.5338 101.24C82.2607 102.952 79.8852 104.992 75.7986 104.992C70.2399 104.992 67.541 98.207 67.4912 98.0789C67.3868 97.7437 67.156 97.4622 66.8478 97.294C66.5397 97.1258 66.1779 97.0839 65.8393 97.1778C64.4774 97.4648 63.4465 97.3333 62.7778 96.7868L62.7782 96.7855ZM95.6873 103.455C96.1451 104.544 96.4317 105.697 96.5365 106.873C98.0523 122.316 91.6333 128.383 89.6974 129.842C78.0431 125.302 73.67 115.106 73.6277 115.006C73.5216 114.749 73.3441 114.528 73.1158 114.37C72.8876 114.211 72.6188 114.122 72.3411 114.112H72.2891C72.0202 114.112 71.7565 114.187 71.5278 114.328C71.2987 114.469 71.114 114.672 70.9935 114.912C70.6127 115.642 70.0243 116.241 69.3028 116.637C67.7173 115.339 66.3744 113.771 65.3355 112.005C64.6258 110.804 64.1676 109.472 63.99 108.088C63.8121 106.705 63.9182 105.3 64.3016 103.959C64.6042 102.917 65.0886 101.936 65.7324 101.063C67.1978 103.654 70.417 107.89 75.8012 107.89C81.0907 107.89 84.1911 105.215 85.8611 102.971C86.3096 102.385 86.8874 101.912 87.5498 101.588C88.2121 101.264 88.9408 101.099 89.678 101.105H93.5113C94.5216 101.105 95.3078 102.578 95.6869 103.456L95.6873 103.455ZM70.8393 77.5444L77.4623 76.5887C77.6686 76.5587 77.8609 76.4678 78.0148 76.3275C78.1687 76.1871 78.2769 76.0037 78.3255 75.8012C78.3741 75.5988 78.361 75.3866 78.2874 75.1917C78.2143 74.9968 78.0841 74.8282 77.9138 74.7082C76.6466 73.8974 75.1942 73.4219 73.6924 73.326C72.9544 73.2486 72.2684 72.9105 71.7573 72.372C71.2467 71.8335 70.9454 71.1301 70.9073 70.3891L70.2141 58.075C71.0265 52.3882 77.7929 54.8993 77.8622 54.9256C84.0634 57.8066 90.3771 63.0813 91.8109 72.7139C89.9561 72.8225 88.1846 72.9422 86.5273 73.066C86.149 73.1002 85.799 73.282 85.553 73.5724C85.3074 73.8623 85.1857 74.2377 85.214 74.6168C85.2423 74.996 85.4186 75.3489 85.7047 75.5992C85.9913 75.8494 86.3641 75.977 86.7437 75.9546C97.6148 75.141 113.204 74.5175 127.1 75.988C116.559 85.2132 104.384 83.0778 104.384 83.0778C104.384 83.0778 89.9519 80.1494 74.9964 80.6727C64.4292 81.0421 62.1336 79.6887 61.6957 78.8627C64.5121 78.3999 67.5858 77.9556 70.8388 77.5452L70.8393 77.5444Z" fill="url(#paint0_linear_41_19)"/>
        <path d="M89.6446 163.677C89.262 163.713 88.9095 163.899 88.6644 164.195C88.4192 164.491 88.3017 164.872 88.3372 165.254C88.3626 165.52 88.385 165.788 88.4053 166.057C88.4327 166.421 88.5967 166.762 88.8643 167.01C89.1314 167.258 89.4831 167.396 89.8479 167.397C89.8842 167.397 89.9214 167.397 89.9582 167.393C90.148 167.378 90.3331 167.327 90.5031 167.241C90.6726 167.155 90.8239 167.037 90.9482 166.893C91.072 166.748 91.1662 166.581 91.2258 166.4C91.285 166.22 91.3083 166.029 91.2939 165.839C91.2719 165.552 91.2478 165.267 91.2216 164.984C91.1849 164.602 90.9984 164.25 90.703 164.005C90.4075 163.76 90.0271 163.642 89.6446 163.677Z" fill="url(#paint1_linear_41_19)"/>
        <path d="M81.748 94.3055C82.2848 94.3608 82.8173 94.4547 83.3411 94.5865C83.7109 94.688 84.1061 94.639 84.4396 94.4492C84.7735 94.2598 85.0183 93.9458 85.1206 93.5759C85.2229 93.2061 85.1743 92.8104 84.9853 92.4765C84.7964 92.1426 84.4827 91.897 84.1133 91.7943C83.426 91.6176 82.7269 91.4929 82.0214 91.4215C81.8308 91.4012 81.6381 91.4189 81.4546 91.4739C81.2712 91.5288 81.1004 91.6193 80.952 91.7406C80.8037 91.8619 80.6811 92.0111 80.5911 92.1802C80.5006 92.3493 80.4452 92.5344 80.4271 92.725C80.4089 92.9157 80.4287 93.1084 80.4858 93.291C80.5424 93.474 80.635 93.6439 80.7576 93.791C80.8806 93.9377 81.0311 94.059 81.201 94.1474C81.3713 94.2357 81.5569 94.2894 81.748 94.3055Z" fill="url(#paint2_linear_41_19)"/>
    </g>
    <path d="M28.2726 182.063C28.2887 182.436 28.4476 182.789 28.7173 183.047C28.9865 183.306 29.3454 183.45 29.7186 183.45C29.7393 183.45 29.7609 183.45 29.7812 183.45H42.1701C42.5607 183.451 42.9462 183.362 43.297 183.191C43.6478 183.02 43.9547 182.771 44.1939 182.462C44.4336 182.154 44.5993 181.795 44.6783 181.412C44.7574 181.03 44.7481 180.635 44.6504 180.257C41.2689 167.377 44.2633 156.086 46.1269 150.929C47.0889 148.184 48.6972 145.711 50.8157 143.718C55.3135 139.573 60.7662 138.805 65.674 139.362C65.7586 139.375 82.4522 141.92 87.4475 159.732C87.535 160.106 87.7675 160.43 88.0938 160.633C88.4201 160.835 88.8136 160.9 89.1877 160.812C89.5618 160.725 89.8855 160.493 90.0884 160.167C90.2909 159.84 90.3556 159.447 90.2681 159.073C87.1643 145.8 78.3724 138.44 71.543 134.602C67.1399 132.1 62.35 130.35 57.3708 129.425C51.1057 128.424 46.3953 126.359 43.2395 123.231C40.9198 118.709 40.8526 113.627 43.431 111.185C46.0804 108.672 50.1306 110.136 50.1306 110.136C50.4429 112.2 51.0355 114.21 51.8919 116.113C52.6426 118.132 53.7885 119.98 55.2628 121.55C59.3549 125.946 64.9001 127.387 65.6098 127.556C78.8373 131.665 87.8029 140.035 92.2589 152.433C94.2895 158.103 95.2253 164.107 95.0165 170.126C95.0131 170.164 95.0119 170.202 95.0119 170.24L95.0119 182.006C95.0089 182.199 95.044 182.39 95.115 182.568C95.1864 182.747 95.2925 182.909 95.4274 183.047C95.5622 183.184 95.7228 183.293 95.9004 183.367C96.0779 183.441 96.2681 183.479 96.4604 183.479C96.6527 183.479 96.843 183.441 97.0205 183.367C97.1976 183.293 97.3586 183.184 97.4935 183.047C97.6283 182.909 97.7344 182.747 97.8058 182.568C97.8768 182.39 97.9119 182.199 97.9086 182.006L97.9086 170.289C97.9255 170.049 97.9745 169.222 97.9614 167.949L98.4635 145.816C98.5903 145.313 98.7142 144.807 98.8494 144.306C102.669 130.198 99.6525 112.04 99.6525 112.04C107.383 126.728 104.786 140.149 103.193 148.555C102.616 151.6 101.957 154.648 101.957 157.78L101.957 182C101.954 182.192 101.989 182.383 102.06 182.562C102.131 182.741 102.237 182.903 102.372 183.04C102.507 183.177 102.668 183.286 102.845 183.361C103.023 183.435 103.213 183.473 103.405 183.473C103.597 183.473 103.788 183.435 103.965 183.361C104.142 183.286 104.303 183.177 104.438 183.04C104.573 182.903 104.679 182.741 104.751 182.562C104.822 182.383 104.857 182.192 104.853 182L104.853 157.78C104.852 154.923 105.233 152.078 105.987 149.322C107.064 145.399 107.247 138.924 107.466 131.94C111.217 135.354 115.873 137.612 120.876 138.443C120.387 140.337 120.13 142.282 120.112 144.238C120.107 144.622 120.254 144.992 120.521 145.268C120.789 145.543 121.155 145.701 121.539 145.707H121.56C121.941 145.707 122.306 145.557 122.577 145.29C122.848 145.023 123.003 144.66 123.009 144.279C123.066 140.31 124.104 137.839 124.125 137.788C124.128 137.781 124.129 137.774 124.132 137.768C124.135 137.761 124.141 137.751 124.144 137.742C124.438 136.967 124.918 136.276 125.541 135.73C126.038 135.302 126.622 134.989 127.252 134.812C127.883 134.635 128.544 134.598 129.19 134.703C129.909 134.813 130.596 135.076 131.204 135.475C131.811 135.874 132.326 136.399 132.712 137.015C133.176 137.764 133.515 138.582 133.718 139.44C130.094 145.653 129.573 158.14 129.829 168.023V168.026C129.829 168.106 129.834 168.185 129.836 168.264C129.86 169.724 129.763 177.501 125.144 181.478C124.968 181.623 124.84 181.82 124.779 182.041C124.718 182.261 124.726 182.495 124.803 182.711C124.88 182.926 125.021 183.113 125.208 183.245C125.395 183.378 125.617 183.449 125.846 183.451H132.169H139.206C139.232 183.451 139.258 183.451 139.284 183.451C139.654 183.45 140.011 183.308 140.28 183.052C140.549 182.797 140.709 182.448 140.729 182.078C141.275 171.722 140.644 161.192 139.968 153.831H141.807C142.414 154.782 143.306 155.517 144.356 155.929C144.404 170.78 144.329 181.882 144.328 181.992C144.326 182.376 144.476 182.745 144.746 183.019C145.015 183.292 145.382 183.447 145.766 183.451H145.776C146.158 183.451 146.525 183.299 146.796 183.031C147.067 182.761 147.221 182.396 147.224 182.014C147.224 181.933 147.263 176.276 147.266 167.657L152.624 164.888C152.568 171.87 152.468 177.593 152.323 181.955C152.317 182.145 152.348 182.335 152.415 182.513C152.482 182.691 152.583 182.854 152.713 182.993C152.843 183.132 152.999 183.244 153.172 183.323C153.346 183.401 153.533 183.445 153.723 183.451H153.771C154.147 183.451 154.508 183.304 154.778 183.043C155.048 182.782 155.206 182.426 155.218 182.051C155.425 175.814 155.543 166.834 155.568 155.369C156.543 154.79 157.351 153.967 157.912 152.983C158.474 151.998 158.77 150.883 158.771 149.75V141.792C158.77 140.652 158.47 139.531 157.903 138.542C157.335 137.553 156.518 136.729 155.534 136.153C155.446 118.206 155.228 101.05 155.104 92.3731C155.079 89.8365 155.517 87.3169 156.399 84.9384C158.839 78.0059 160.639 70.8651 161.778 63.6046C161.828 63.2609 161.753 62.911 161.566 62.618C157.368 56.0393 148.04 49.7827 147.644 49.5198C147.373 49.3389 147.048 49.2552 146.723 49.2818C146.399 49.3081 146.092 49.4433 145.853 49.6656C136.876 58.0348 134.9 71.1656 134.821 71.7202C134.771 72.0668 134.849 72.4197 135.039 72.7135C137.849 77.0536 142.84 80.6004 145.034 82.0299L144.35 83.6649C143.328 86.1258 142.873 88.7857 143.021 91.447C143.606 101.832 144.008 116.706 144.216 135.665C143.024 136.175 142.059 137.101 141.499 138.27H136.406C136.125 137.284 135.707 136.341 135.165 135.47C134.556 134.502 133.747 133.677 132.79 133.05C131.834 132.423 130.754 132.01 129.624 131.839C128.566 131.675 127.486 131.741 126.456 132.033C125.426 132.325 124.471 132.835 123.657 133.53C122.957 134.132 122.372 134.856 121.928 135.665C116.383 134.881 111.303 132.136 107.61 127.926C107.558 127.869 107.502 127.816 107.441 127.768C107.099 120.34 105.06 112.799 99.4894 107.479C99.4653 107.183 99.4471 106.891 99.4171 106.588C99.2831 105.113 98.9213 103.669 98.3448 102.305C97.3227 99.9354 96.0513 98.8765 94.9003 98.4521C94.7122 95.5043 94.3068 92.5738 93.688 89.6856C107.718 91.6693 116.694 88.3427 121.917 84.9515C128.402 80.7441 130.69 75.5907 130.784 75.373C130.874 75.1663 130.914 74.9419 130.902 74.717C130.89 74.4926 130.825 74.2736 130.713 74.0783C130.602 73.8831 130.446 73.7161 130.258 73.5914C130.071 73.4667 129.857 73.3873 129.634 73.3598C118.148 71.9374 105.303 72.0296 94.7126 72.5529C94.3009 69.2124 93.2074 65.9919 91.5002 63.0914C89.793 60.191 87.5083 57.6722 84.7875 55.6906C79.9186 52.0449 74.3412 50.2861 70.5197 49.453C69.0217 49.1314 67.4624 49.2476 66.0287 49.7882C64.5949 50.3288 63.3471 51.2706 62.4341 52.5014C57.5335 59.0975 53.6917 60.877 51.3318 61.2088C49.0772 61.525 47.8273 60.5917 47.7931 60.5659C47.5695 60.3824 47.2956 60.2709 47.0073 60.2442C46.7191 60.218 46.4299 60.2789 46.1763 60.4188C45.9231 60.5583 45.7173 60.7709 45.5858 61.0287C45.4544 61.2861 45.4028 61.5774 45.4383 61.8648C45.5617 62.8869 45.7659 63.8979 46.0495 64.8879C46.4456 66.2675 47.1595 67.5352 48.1342 68.5893C49.1085 69.6431 50.3165 70.4542 51.6611 70.9568C53.0289 71.4818 54.5003 71.6792 55.9577 71.5333C57.4152 71.3875 58.8185 70.9023 60.0544 70.1169C61.2718 69.351 62.3196 68.7643 63.1489 68.3311L62.7292 75.7644C59.2407 76.3139 56.0888 76.8968 53.4098 77.4924C38.3106 80.8481 31.9533 78.9532 31.9001 78.9367C31.6029 78.8395 31.2817 78.8412 30.9854 78.9413C30.6891 79.0415 30.4329 79.2355 30.2558 79.4934C30.0787 79.7512 29.99 80.0598 30.0026 80.3726C30.0153 80.6854 30.129 80.9855 30.3264 81.2281C36.2204 88.4615 43.4661 90.6933 50.1652 90.6933C53.3218 90.6654 56.4616 90.2237 59.5028 89.3787C59.275 90.0272 59.1 90.6929 58.9804 91.37C54.0603 92.2154 44.1817 94.9726 38.6068 103.751C37.3849 105.629 36.5526 107.733 36.1591 109.939C35.766 112.144 35.8197 114.406 36.3172 116.59C36.799 118.578 37.6089 120.471 38.7142 122.192C37.4981 129.104 35.7233 135.907 33.4065 142.532C27.3921 159.65 28.2337 181.156 28.2726 182.063ZM146.999 52.5987C149.382 54.2979 155.608 58.9859 158.831 63.7272C158.464 66.0143 156.867 75.2137 153.681 83.9455C152.679 86.655 152.181 89.525 152.212 92.4141C152.332 100.941 152.545 117.659 152.634 135.265C152.498 135.257 152.363 135.244 152.224 135.244H147.109C146.898 116.427 146.539 101.638 145.913 91.2851C145.75 88.5118 146.436 85.7551 147.878 83.3808C149.617 80.3848 153.513 73.0905 153.144 66.5465C153.065 64.9766 152.555 63.4592 151.671 62.1603C151.31 61.6285 150.826 61.1923 150.26 60.8897C149.694 60.5866 149.062 60.426 148.42 60.4213C147.778 60.4167 147.144 60.5684 146.573 60.8635C146.003 61.1585 145.512 61.5875 145.145 62.1142C143.665 64.2931 142.661 66.7599 142.198 69.3531C142.116 69.7285 142.181 70.1207 142.379 70.45C142.578 70.7789 142.894 71.0198 143.264 71.1229C143.455 71.1686 143.653 71.1749 143.847 71.1419C144.041 71.109 144.225 71.0367 144.39 70.9297C144.555 70.8232 144.697 70.6842 144.806 70.521C144.915 70.3583 144.99 70.1744 145.027 69.9817C145.33 68.192 145.916 66.4619 146.763 64.857C146.911 64.5852 147.13 64.3599 147.398 64.2052C147.666 64.0505 147.971 63.9732 148.28 63.9812C148.589 63.9892 148.89 64.0822 149.149 64.2505C149.408 64.4187 149.616 64.6554 149.749 64.9344C150.025 65.4691 150.194 66.0515 150.249 66.6505C150.366 68.2727 150.259 69.903 149.932 71.4962C149.479 73.0102 148.309 74.9351 145.293 75.2179C143.977 75.3464 142.649 75.1469 141.428 74.6376C140.208 74.1282 139.132 73.3247 138.298 72.2984C138.12 72.0676 137.947 71.8335 137.782 71.5993C138.227 69.2136 140.4 59.3617 146.999 52.5987ZM143.869 140.56C143.869 139.919 144.124 139.304 144.578 138.85C145.031 138.397 145.646 138.142 146.287 138.142H152.226C153.194 138.142 154.123 138.528 154.807 139.212C155.491 139.896 155.876 140.824 155.877 141.792V149.749C155.876 150.717 155.491 151.645 154.807 152.33C154.123 153.014 153.194 153.399 152.226 153.4H146.287C145.646 153.399 145.031 153.144 144.578 152.691C144.124 152.238 143.869 151.623 143.869 150.982V140.56ZM136.072 141.168H140.972V150.935H133.384C133.898 147.025 134.744 143.564 136.072 141.167V141.168ZM62.7782 96.7855C61.8432 96.0221 61.6471 94.4772 61.6509 93.9286C61.6082 92.0049 62.1285 90.1108 63.1472 88.4789C63.9 88.3187 64.6575 88.1771 65.4183 88.0477C66.377 89.3031 67.1484 90.6912 67.708 92.1685C67.9654 92.8613 68.4202 93.4632 69.0158 93.9007C69.6114 94.3381 70.3219 94.5922 71.0595 94.6306C71.1394 94.6357 71.2188 94.6378 71.2983 94.6378C71.9907 94.6416 72.6708 94.4535 73.263 94.0947C73.8547 93.7358 74.3362 93.2201 74.6532 92.6047C75.5349 90.9304 76.1393 89.1243 76.4428 87.2569C80.3759 87.3473 84.2908 87.8233 88.131 88.6775C88.9691 88.8639 89.787 89.0271 90.5944 89.1788C90.7368 89.7465 90.8729 90.3247 90.9968 90.9245C90.4054 91.0961 89.823 91.2977 89.2515 91.5285C88.8973 91.6773 88.617 91.9605 88.4716 92.3164C88.3267 92.6719 88.3284 93.0709 88.4771 93.4251C88.6259 93.7793 88.9095 94.06 89.265 94.205C89.6209 94.3504 90.0195 94.3483 90.3737 94.1995C90.3805 94.1965 90.8286 94.0122 91.4989 93.8005C91.7044 95.2008 91.8654 96.6697 91.9816 98.207H89.678C88.489 98.2011 87.3147 98.4724 86.2483 98.9987C85.1819 99.5253 84.2528 100.293 83.5338 101.24C82.2607 102.952 79.8852 104.992 75.7986 104.992C70.2399 104.992 67.541 98.207 67.4912 98.0789C67.3868 97.7437 67.156 97.4622 66.8478 97.294C66.5397 97.1258 66.1779 97.0839 65.8393 97.1778C64.4774 97.4648 63.4465 97.3333 62.7778 96.7868L62.7782 96.7855ZM95.6873 103.455C96.1451 104.544 96.4317 105.697 96.5365 106.873C98.0523 122.316 91.6333 128.383 89.6974 129.842C78.0431 125.302 73.67 115.106 73.6277 115.006C73.5216 114.749 73.3441 114.528 73.1158 114.37C72.8876 114.211 72.6188 114.122 72.3411 114.112H72.2891C72.0202 114.112 71.7565 114.187 71.5278 114.328C71.2987 114.469 71.114 114.672 70.9935 114.912C70.6127 115.642 70.0243 116.241 69.3028 116.637C67.7173 115.339 66.3744 113.771 65.3355 112.005C64.6258 110.804 64.1676 109.472 63.99 108.088C63.8121 106.705 63.9182 105.3 64.3016 103.959C64.6042 102.917 65.0886 101.936 65.7324 101.063C67.1978 103.654 70.417 107.89 75.8012 107.89C81.0907 107.89 84.1911 105.215 85.8611 102.971C86.3096 102.385 86.8874 101.912 87.5498 101.588C88.2121 101.264 88.9408 101.099 89.678 101.105H93.5113C94.5216 101.105 95.3078 102.578 95.6869 103.456L95.6873 103.455ZM70.8393 77.5444L77.4623 76.5887C77.6686 76.5587 77.8609 76.4678 78.0148 76.3275C78.1687 76.1871 78.2769 76.0037 78.3255 75.8012C78.3741 75.5988 78.361 75.3866 78.2874 75.1917C78.2143 74.9968 78.0841 74.8282 77.9138 74.7082C76.6466 73.8974 75.1942 73.4219 73.6924 73.326C72.9544 73.2486 72.2684 72.9105 71.7573 72.372C71.2467 71.8335 70.9454 71.1301 70.9073 70.3891L70.2141 58.075C71.0265 52.3882 77.7929 54.8993 77.8622 54.9256C84.0634 57.8066 90.3771 63.0813 91.8109 72.7139C89.9561 72.8225 88.1846 72.9422 86.5273 73.066C86.149 73.1002 85.799 73.282 85.553 73.5724C85.3074 73.8623 85.1857 74.2377 85.214 74.6168C85.2423 74.996 85.4186 75.3489 85.7047 75.5992C85.9913 75.8494 86.3641 75.977 86.7437 75.9546C97.6148 75.141 113.204 74.5175 127.1 75.988C116.559 85.2132 104.384 83.0778 104.384 83.0778C104.384 83.0778 89.9519 80.1494 74.9964 80.6727C64.4292 81.0421 62.1336 79.6887 61.6957 78.8627C64.5121 78.3999 67.5858 77.9556 70.8388 77.5452L70.8393 77.5444Z" fill="url(#paint3_linear_41_19)"/>
    <path d="M89.6446 163.677C89.262 163.713 88.9095 163.899 88.6644 164.195C88.4192 164.491 88.3017 164.872 88.3372 165.254C88.3626 165.52 88.385 165.788 88.4053 166.057C88.4327 166.421 88.5967 166.762 88.8643 167.01C89.1314 167.258 89.4831 167.396 89.8479 167.397C89.8842 167.397 89.9214 167.397 89.9582 167.393C90.148 167.378 90.3331 167.327 90.5031 167.241C90.6726 167.155 90.8239 167.037 90.9482 166.893C91.072 166.748 91.1662 166.581 91.2258 166.4C91.285 166.22 91.3083 166.029 91.2939 165.839C91.2719 165.552 91.2478 165.267 91.2216 164.984C91.1849 164.602 90.9984 164.25 90.703 164.005C90.4075 163.76 90.0271 163.642 89.6446 163.677Z" fill="url(#paint4_linear_41_19)"/>
    <path d="M81.748 94.3055C82.2848 94.3608 82.8173 94.4547 83.3411 94.5865C83.7109 94.688 84.1061 94.639 84.4396 94.4492C84.7735 94.2598 85.0183 93.9458 85.1206 93.5759C85.2229 93.2061 85.1743 92.8104 84.9853 92.4765C84.7964 92.1426 84.4827 91.897 84.1133 91.7943C83.426 91.6176 82.7269 91.4929 82.0214 91.4215C81.8308 91.4012 81.6381 91.4189 81.4546 91.4739C81.2712 91.5288 81.1004 91.6193 80.952 91.7406C80.8037 91.8619 80.6811 92.0111 80.5911 92.1802C80.5006 92.3493 80.4452 92.5344 80.4271 92.725C80.4089 92.9157 80.4287 93.1084 80.4858 93.291C80.5424 93.474 80.635 93.6439 80.7576 93.791C80.8806 93.9377 81.0311 94.059 81.201 94.1474C81.3713 94.2357 81.5569 94.2894 81.748 94.3055Z" fill="#D1FCFF"/>
    <path fill-rule="evenodd" clip-rule="evenodd" d="M1.81317 99.4145L8.15968 97.6582L10.8468 100.315L7.48336 107.559L0.873941 103.074L1.81317 99.4145Z" stroke="#FDFFAC" stroke-linecap="round" stroke-linejoin="round"/>
    <path d="M1.81316 99.4143L7.48334 107.559L8.15967 97.658" stroke="#FDFFAC" stroke-linecap="round" stroke-linejoin="round"/>
    <path d="M0.873932 103.074L10.8468 100.314" stroke="#FDFFAC" stroke-linecap="round" stroke-linejoin="round"/>
    <path d="M3.82041 102.259L4.9864 98.5363L7.90025 101.13" stroke="#FDFFAC" stroke-linecap="round" stroke-linejoin="round"/>
    <g clip-path="url(#clip0_41_19)">
        <path fill-rule="evenodd" clip-rule="evenodd" d="M121.796 4.39551L133.679 9.85528L134.357 17.3282L119.975 24.0198L115.684 8.74875L121.796 4.39551Z" stroke="#FDFFAC" stroke-width="2" stroke-linecap="round" stroke-linejoin="round"/>
        <path d="M121.796 4.39551L119.975 24.0198L133.679 9.85527" stroke="#FDFFAC" stroke-width="2" stroke-linecap="round" stroke-linejoin="round"/>
        <path d="M115.684 8.74878L134.357 17.3282" stroke="#FDFFAC" stroke-width="2" stroke-linecap="round" stroke-linejoin="round"/>
        <path d="M121.201 11.2837L127.737 7.1255L128.84 14.7935" stroke="#FDFFAC" stroke-width="2" stroke-linecap="round" stroke-linejoin="round"/>
    </g>
    <g clip-path="url(#clip1_41_19)">
        <path fill-rule="evenodd" clip-rule="evenodd" d="M120.313 101.686L125.607 100.797L127.562 103.177L124.224 108.768L119.243 104.574L120.313 101.686Z" stroke="#FDFFAC" stroke-linecap="round" stroke-linejoin="round"/>
        <path d="M120.313 101.686L124.224 108.768L125.607 100.797" stroke="#FDFFAC" stroke-linecap="round" stroke-linejoin="round"/>
        <path d="M119.243 104.574L127.562 103.177" stroke="#FDFFAC" stroke-linecap="round" stroke-linejoin="round"/>
        <path d="M121.701 104.161L122.96 101.241L125.104 103.59" stroke="#FDFFAC" stroke-linecap="round" stroke-linejoin="round"/>
    </g>
    <g clip-path="url(#clip2_41_19)">
        <path fill-rule="evenodd" clip-rule="evenodd" d="M32.7295 24.8046L42.7129 21.8904L47.0152 26.0256L41.8644 37.5413L31.3274 30.605L32.7295 24.8046Z" stroke="#A5FFBE" stroke-width="2" stroke-linecap="round" stroke-linejoin="round"/>
        <path d="M32.7295 24.8047L41.8644 37.5413L42.7129 21.8905" stroke="#A5FFBE" stroke-width="2" stroke-linecap="round" stroke-linejoin="round"/>
        <path d="M31.3274 30.605L47.0152 26.0256" stroke="#A5FFBE" stroke-width="2" stroke-linecap="round" stroke-linejoin="round"/>
        <path d="M35.9624 29.252L37.7212 23.3475L42.3802 27.3786" stroke="#A5FFBE" stroke-width="2" stroke-linecap="round" stroke-linejoin="round"/>
    </g>
    <g clip-path="url(#clip3_41_19)">
        <path fill-rule="evenodd" clip-rule="evenodd" d="M189.856 84.5654L199.883 92.1111L198.992 99.2561L184.142 102.593L183.237 87.3989L189.856 84.5654Z" stroke="#A5FFBE" stroke-width="2" stroke-linecap="round" stroke-linejoin="round"/>
        <path d="M189.856 84.5654L184.142 102.593L199.883 92.1111" stroke="#A5FFBE" stroke-width="2" stroke-linecap="round" stroke-linejoin="round"/>
        <path d="M183.237 87.3989L198.992 99.2561" stroke="#A5FFBE" stroke-width="2" stroke-linecap="round" stroke-linejoin="round"/>
        <path d="M187.892 90.9021L194.869 88.3382L194.337 95.7528" stroke="#A5FFBE" stroke-width="2" stroke-linecap="round" stroke-linejoin="round"/>
    </g>
    <defs>
        <filter id="filter0_f_41_19" x="8.21155" y="29.2751" width="173.582" height="174.204" filterUnits="userSpaceOnUse" color-interpolation-filters="sRGB">
            <feFlood flood-opacity="0" result="BackgroundImageFix"/>
            <feBlend mode="normal" in="SourceGraphic" in2="BackgroundImageFix" result="shape"/>
            <feGaussianBlur stdDeviation="10" result="effect1_foregroundBlur_41_19"/>
        </filter>
        <linearGradient id="paint0_linear_41_19" x1="93.5371" y1="36.6648" x2="85.268" y2="181.167" gradientUnits="userSpaceOnUse">
            <stop stop-color="#D1FCFF"/>
            <stop offset="1" stop-color="#D1FCFF" stop-opacity="0"/>
        </linearGradient>
        <linearGradient id="paint1_linear_41_19" x1="89.782" y1="163.321" x2="89.4956" y2="167.325" gradientUnits="userSpaceOnUse">
            <stop stop-color="#D1FCFF"/>
            <stop offset="1" stop-color="#D1FCFF" stop-opacity="0"/>
        </linearGradient>
        <linearGradient id="paint2_linear_41_19" x1="82.7446" y1="91.1103" x2="82.6102" y2="94.5888" gradientUnits="userSpaceOnUse">
            <stop stop-color="#D1FCFF"/>
            <stop offset="1" stop-color="#D1FCFF" stop-opacity="0"/>
        </linearGradient>
        <linearGradient id="paint3_linear_41_19" x1="81" y1="113" x2="79" y2="190.5" gradientUnits="userSpaceOnUse">
            <stop stop-color="#D1FCFF"/>
            <stop offset="1" stop-color="#D1FCFF" stop-opacity="0"/>
        </linearGradient>
        <linearGradient id="paint4_linear_41_19" x1="89.782" y1="163.321" x2="89.4956" y2="167.325" gradientUnits="userSpaceOnUse">
            <stop stop-color="#D1FCFF"/>
            <stop offset="1" stop-color="#D1FCFF" stop-opacity="0"/>
        </linearGradient>
        <clipPath id="clip0_41_19">
            <rect width="23.4851" height="23.4851" fill="white" transform="translate(118.089) rotate(24.6769)"/>
        </clipPath>
        <clipPath id="clip1_41_19">
            <rect width="9.64038" height="9.64038" fill="white" transform="translate(118.04 101.049) rotate(-9.53489)"/>
        </clipPath>
        <clipPath id="clip2_41_19">
            <rect width="18.6772" height="18.6772" fill="white" transform="translate(28.2116 24.0967) rotate(-16.2728)"/>
        </clipPath>
        <clipPath id="clip3_41_19">
            <rect width="22.5357" height="22.5357" fill="white" transform="translate(187.278 79.687) rotate(36.9641)"/>
        </clipPath>
    </defs>
</svg>
