<svg width="231" height="23" viewBox="0 0 231 23" fill="none" xmlns="http://www.w3.org/2000/svg">
    <path d="M0.936 3.216V2.088H8.256V3.216L6.144 3.456C6.128 4.448 6.112 5.456 6.096 6.48C6.096 7.488 6.096 8.504 6.096 9.528V10.992C6.096 11.84 6.096 12.752 6.096 13.728C6.112 14.704 6.128 15.696 6.144 16.704H10.992L11.664 13.392H13.344L13.104 18H0.936V16.872L2.952 16.656C2.984 15.648 3 14.656 3 13.68C3 12.688 3 11.736 3 10.824V9.528C3 8.488 3 7.464 3 6.456C3 5.432 2.984 4.424 2.952 3.432L0.936 3.216ZM20.8048 18.336C19.7168 18.336 18.7328 18.096 17.8528 17.616C16.9888 17.136 16.3008 16.44 15.7888 15.528C15.2768 14.616 15.0208 13.528 15.0208 12.264C15.0208 10.984 15.2848 9.888 15.8128 8.976C16.3568 8.064 17.0688 7.368 17.9488 6.888C18.8288 6.408 19.7808 6.168 20.8048 6.168C21.8288 6.168 22.7808 6.408 23.6608 6.888C24.5408 7.368 25.2528 8.064 25.7968 8.976C26.3408 9.872 26.6128 10.968 26.6128 12.264C26.6128 13.544 26.3488 14.64 25.8208 15.552C25.3088 16.448 24.6128 17.136 23.7328 17.616C22.8688 18.096 21.8928 18.336 20.8048 18.336ZM20.8048 17.16C21.6688 17.16 22.3248 16.76 22.7728 15.96C23.2368 15.16 23.4688 13.936 23.4688 12.288C23.4688 8.992 22.5808 7.344 20.8048 7.344C19.0448 7.344 18.1648 8.992 18.1648 12.288C18.1648 13.936 18.3888 15.16 18.8368 15.96C19.2848 16.76 19.9408 17.16 20.8048 17.16ZM34.2579 18.336C33.1699 18.336 32.1859 18.096 31.3059 17.616C30.4419 17.136 29.7539 16.44 29.2419 15.528C28.7299 14.616 28.4739 13.528 28.4739 12.264C28.4739 10.984 28.7379 9.888 29.2659 8.976C29.8099 8.064 30.5219 7.368 31.4019 6.888C32.2819 6.408 33.2339 6.168 34.2579 6.168C35.2819 6.168 36.2339 6.408 37.1139 6.888C37.9939 7.368 38.7059 8.064 39.2499 8.976C39.7939 9.872 40.0659 10.968 40.0659 12.264C40.0659 13.544 39.8019 14.64 39.2739 15.552C38.7619 16.448 38.0659 17.136 37.1859 17.616C36.3219 18.096 35.3459 18.336 34.2579 18.336ZM34.2579 17.16C35.1219 17.16 35.7779 16.76 36.2259 15.96C36.6899 15.16 36.9219 13.936 36.9219 12.288C36.9219 8.992 36.0339 7.344 34.2579 7.344C32.4979 7.344 31.6179 8.992 31.6179 12.288C31.6179 13.936 31.8419 15.16 32.2899 15.96C32.7379 16.76 33.3939 17.16 34.2579 17.16ZM45.8687 18.336C44.9087 18.336 44.1567 18.096 43.6127 17.616C43.0687 17.136 42.7967 16.368 42.7967 15.312C42.7967 14.944 42.7967 14.6 42.7967 14.28C42.8127 13.944 42.8207 13.544 42.8207 13.08V7.968H41.0447V6.72L42.9887 6.48L43.9007 3.192H45.8447L45.7487 6.504H48.6287V7.968H45.7247V15.048C45.7247 15.64 45.8367 16.072 46.0607 16.344C46.3007 16.616 46.6127 16.752 46.9967 16.752C47.4287 16.752 47.9167 16.552 48.4607 16.152L49.0367 16.752C48.7327 17.248 48.3167 17.64 47.7887 17.928C47.2607 18.2 46.6207 18.336 45.8687 18.336ZM58.5516 11.328C58.5516 12.592 58.6716 13.768 58.9116 14.856C59.1516 15.944 59.5436 17.024 60.0876 18.096C60.6476 19.168 61.3836 20.328 62.2956 21.576L61.4316 22.32C57.9276 19.328 56.1756 15.664 56.1756 11.328C56.1756 6.992 57.9276 3.328 61.4316 0.335999L62.2956 1.08C61.3836 2.312 60.6476 3.472 60.0876 4.56C59.5436 5.632 59.1516 6.712 58.9116 7.8C58.6716 8.888 58.5516 10.064 58.5516 11.328ZM63.5811 18V17.016L65.1891 16.704C65.2051 16.08 65.2131 15.456 65.2131 14.832C65.2291 14.208 65.2371 13.584 65.2371 12.96V7.968H63.4611V6.72L65.3091 6.48C65.4371 5.296 65.6291 4.344 65.8851 3.624C66.1571 2.888 66.5731 2.24 67.1331 1.68C67.6771 1.136 68.2691 0.751999 68.9091 0.527999C69.5651 0.287999 70.1971 0.167999 70.8051 0.167999C71.4291 0.167999 71.9811 0.279999 72.4611 0.503999C72.9571 0.727999 73.2691 1.12 73.3971 1.68C73.3811 2.048 73.2291 2.36 72.9411 2.616C72.6691 2.872 72.2931 3 71.8131 3C71.1251 3 70.4771 2.6 69.8691 1.8L69.4371 1.368C69.3891 1.4 69.3331 1.448 69.2691 1.512C68.8371 1.944 68.5251 2.552 68.3331 3.336C68.1411 4.12 68.0611 5.176 68.0931 6.504H71.0451V7.968H68.1411V12.96C68.1411 13.568 68.1411 14.184 68.1411 14.808C68.1571 15.416 68.1731 16.032 68.1891 16.656L70.2051 17.016V18H63.5811ZM77.7579 18.336C76.6699 18.336 75.6859 18.096 74.8059 17.616C73.9419 17.136 73.2539 16.44 72.7419 15.528C72.2299 14.616 71.9739 13.528 71.9739 12.264C71.9739 10.984 72.2379 9.888 72.7659 8.976C73.3099 8.064 74.0219 7.368 74.9019 6.888C75.7819 6.408 76.7339 6.168 77.7579 6.168C78.7819 6.168 79.7339 6.408 80.6139 6.888C81.4939 7.368 82.2059 8.064 82.7499 8.976C83.2939 9.872 83.5659 10.968 83.5659 12.264C83.5659 13.544 83.3019 14.64 82.7739 15.552C82.2619 16.448 81.5659 17.136 80.6859 17.616C79.8219 18.096 78.8459 18.336 77.7579 18.336ZM77.7579 17.16C78.6219 17.16 79.2779 16.76 79.7259 15.96C80.1899 15.16 80.4219 13.936 80.4219 12.288C80.4219 8.992 79.5339 7.344 77.7579 7.344C75.9979 7.344 75.1179 8.992 75.1179 12.288C75.1179 13.936 75.3419 15.16 75.7899 15.96C76.2379 16.76 76.8939 17.16 77.7579 17.16ZM85.2853 18V17.016L86.8213 16.728C86.8373 16.12 86.8453 15.472 86.8453 14.784C86.8453 14.08 86.8453 13.472 86.8453 12.96V11.688C86.8453 11.032 86.8373 10.512 86.8213 10.128C86.8213 9.728 86.8053 9.288 86.7733 8.808L85.0933 8.592V7.68L89.1013 6.168L89.4853 6.408L89.7253 9.24C90.0933 8.248 90.5893 7.488 91.2133 6.96C91.8373 6.432 92.4613 6.168 93.0853 6.168C93.5173 6.168 93.9093 6.28 94.2613 6.504C94.6293 6.728 94.8693 7.048 94.9813 7.464C94.9653 8.056 94.8213 8.52 94.5493 8.856C94.2773 9.176 93.9013 9.336 93.4213 9.336C92.8453 9.336 92.3013 9.048 91.7893 8.472L91.5733 8.232C90.7253 8.936 90.1173 9.928 89.7493 11.208V12.96C89.7493 13.456 89.7493 14.048 89.7493 14.736C89.7493 15.408 89.7573 16.04 89.7733 16.632L91.7413 17.016V18H85.2853ZM107.653 5.184L105.445 11.832H109.837L107.653 5.184ZM100.621 18V16.872L102.589 16.584L107.605 1.992H109.573L114.589 16.704L116.221 16.896V18H109.285V16.896L111.397 16.632L110.245 13.08H105.013L103.861 16.56L105.949 16.872V18H100.621ZM119.999 12.312C119.999 13.768 120.271 14.856 120.815 15.576C121.375 16.28 122.079 16.632 122.927 16.632C123.343 16.632 123.719 16.552 124.055 16.392C124.407 16.216 124.735 15.968 125.039 15.648V8.76C124.335 8.152 123.639 7.848 122.951 7.848C122.151 7.848 121.455 8.208 120.863 8.928C120.287 9.648 119.999 10.776 119.999 12.312ZM125.327 18.264L125.135 16.752C124.687 17.264 124.191 17.656 123.647 17.928C123.103 18.2 122.479 18.336 121.775 18.336C120.831 18.336 119.991 18.096 119.255 17.616C118.535 17.136 117.967 16.448 117.551 15.552C117.135 14.656 116.927 13.592 116.927 12.36C116.927 11.096 117.159 10 117.623 9.072C118.103 8.144 118.735 7.432 119.519 6.936C120.319 6.424 121.191 6.168 122.135 6.168C122.743 6.168 123.287 6.28 123.767 6.504C124.263 6.728 124.727 7.096 125.159 7.608V2.664L123.287 2.424V1.488L127.679 0.407999L128.039 0.623999L127.943 4.008V16.752L129.503 17.016V18L125.327 18.264ZM137.359 7.512V6.504H141.919V7.512L140.575 7.8L136.639 18.096H135.223L130.879 7.728L129.631 7.512V6.504H135.943V7.512L134.095 7.8L136.735 14.76L139.111 7.824L137.359 7.512ZM148.068 7.32C147.684 7.32 147.3 7.448 146.916 7.704C146.548 7.944 146.228 8.344 145.956 8.904C145.7 9.464 145.54 10.224 145.476 11.184H148.764C149.34 11.184 149.724 11.064 149.916 10.824C150.108 10.584 150.204 10.248 150.204 9.816C150.204 9.08 149.996 8.48 149.58 8.016C149.164 7.552 148.66 7.32 148.068 7.32ZM148.068 18.336C146.948 18.336 145.964 18.096 145.116 17.616C144.268 17.136 143.604 16.448 143.124 15.552C142.644 14.64 142.404 13.56 142.404 12.312C142.404 11.032 142.676 9.936 143.22 9.024C143.78 8.096 144.5 7.392 145.38 6.912C146.276 6.416 147.228 6.168 148.236 6.168C149.18 6.168 150.004 6.368 150.708 6.768C151.412 7.168 151.956 7.728 152.34 8.448C152.74 9.168 152.94 10.016 152.94 10.992C152.94 11.504 152.892 11.944 152.796 12.312H145.452C145.516 13.688 145.876 14.72 146.532 15.408C147.204 16.096 148.044 16.44 149.052 16.44C149.756 16.44 150.348 16.304 150.828 16.032C151.324 15.744 151.772 15.376 152.172 14.928L152.868 15.552C152.404 16.432 151.764 17.12 150.948 17.616C150.148 18.096 149.188 18.336 148.068 18.336ZM154.683 18V17.016L156.243 16.704C156.259 16.112 156.267 15.472 156.267 14.784C156.267 14.08 156.267 13.472 156.267 12.96V11.688C156.267 11.032 156.259 10.512 156.243 10.128C156.243 9.728 156.227 9.288 156.195 8.808L154.515 8.592V7.68L158.523 6.168L158.907 6.408L159.075 8.256C160.307 6.864 161.667 6.168 163.155 6.168C164.195 6.168 164.995 6.512 165.555 7.2C166.131 7.888 166.419 8.976 166.419 10.464V12.96C166.419 13.504 166.419 14.12 166.419 14.808C166.419 15.496 166.427 16.136 166.443 16.728L167.907 17.016V18H161.979V17.016L163.515 16.704C163.531 16.112 163.539 15.48 163.539 14.808C163.539 14.12 163.539 13.504 163.539 12.96V10.68C163.539 9.736 163.411 9.088 163.155 8.736C162.899 8.368 162.467 8.184 161.859 8.184C161.011 8.184 160.115 8.576 159.171 9.36V12.96C159.171 13.488 159.171 14.096 159.171 14.784C159.171 15.472 159.179 16.12 159.195 16.728L160.611 17.016V18H154.683ZM173.486 18.336C172.526 18.336 171.774 18.096 171.23 17.616C170.686 17.136 170.414 16.368 170.414 15.312C170.414 14.944 170.414 14.6 170.414 14.28C170.43 13.944 170.438 13.544 170.438 13.08V7.968H168.662V6.72L170.606 6.48L171.518 3.192H173.462L173.366 6.504H176.246V7.968H173.342V15.048C173.342 15.64 173.454 16.072 173.678 16.344C173.918 16.616 174.23 16.752 174.614 16.752C175.046 16.752 175.534 16.552 176.078 16.152L176.654 16.752C176.35 17.248 175.934 17.64 175.406 17.928C174.878 18.2 174.238 18.336 173.486 18.336ZM186.036 18.216L185.844 16.104C184.676 17.592 183.316 18.336 181.764 18.336C180.772 18.336 179.972 18.016 179.364 17.376C178.772 16.72 178.484 15.6 178.5 14.016L178.596 8.088L177.036 7.752V6.816L181.236 6.312L181.524 6.576L181.404 9.936V13.92C181.404 14.816 181.54 15.448 181.812 15.816C182.1 16.168 182.508 16.344 183.036 16.344C183.484 16.344 183.94 16.216 184.404 15.96C184.884 15.704 185.34 15.376 185.772 14.976L185.844 8.088L184.332 7.752V6.864L188.436 6.312L188.748 6.576L188.676 9.936V16.704L190.14 17.016V18L186.036 18.216ZM191.621 18V17.016L193.157 16.728C193.173 16.12 193.181 15.472 193.181 14.784C193.181 14.08 193.181 13.472 193.181 12.96V11.688C193.181 11.032 193.173 10.512 193.157 10.128C193.157 9.728 193.141 9.288 193.109 8.808L191.429 8.592V7.68L195.437 6.168L195.821 6.408L196.061 9.24C196.429 8.248 196.925 7.488 197.549 6.96C198.173 6.432 198.797 6.168 199.421 6.168C199.853 6.168 200.245 6.28 200.597 6.504C200.965 6.728 201.205 7.048 201.317 7.464C201.301 8.056 201.157 8.52 200.885 8.856C200.613 9.176 200.237 9.336 199.757 9.336C199.181 9.336 198.637 9.048 198.125 8.472L197.909 8.232C197.061 8.936 196.453 9.928 196.085 11.208V12.96C196.085 13.456 196.085 14.048 196.085 14.736C196.085 15.408 196.093 16.04 196.109 16.632L198.077 17.016V18H191.621ZM207.646 7.32C207.262 7.32 206.878 7.448 206.494 7.704C206.126 7.944 205.806 8.344 205.534 8.904C205.278 9.464 205.118 10.224 205.054 11.184H208.342C208.918 11.184 209.302 11.064 209.494 10.824C209.686 10.584 209.782 10.248 209.782 9.816C209.782 9.08 209.574 8.48 209.158 8.016C208.742 7.552 208.238 7.32 207.646 7.32ZM207.646 18.336C206.526 18.336 205.542 18.096 204.694 17.616C203.846 17.136 203.182 16.448 202.702 15.552C202.222 14.64 201.982 13.56 201.982 12.312C201.982 11.032 202.254 9.936 202.798 9.024C203.358 8.096 204.078 7.392 204.958 6.912C205.854 6.416 206.806 6.168 207.814 6.168C208.758 6.168 209.582 6.368 210.286 6.768C210.99 7.168 211.534 7.728 211.918 8.448C212.318 9.168 212.518 10.016 212.518 10.992C212.518 11.504 212.47 11.944 212.374 12.312H205.03C205.094 13.688 205.454 14.72 206.11 15.408C206.782 16.096 207.622 16.44 208.63 16.44C209.334 16.44 209.926 16.304 210.406 16.032C210.902 15.744 211.35 15.376 211.75 14.928L212.446 15.552C211.982 16.432 211.342 17.12 210.526 17.616C209.726 18.096 208.766 18.336 207.646 18.336ZM218.293 18.336C217.557 18.336 216.877 18.248 216.253 18.072C215.645 17.912 215.037 17.664 214.429 17.328L214.405 14.544H216.013L216.445 16.776C217.021 17.016 217.645 17.136 218.317 17.136C219.133 17.136 219.741 16.992 220.141 16.704C220.541 16.416 220.741 16.016 220.741 15.504C220.741 15.056 220.581 14.696 220.261 14.424C219.941 14.136 219.397 13.864 218.629 13.608L217.429 13.2C216.533 12.912 215.821 12.488 215.293 11.928C214.781 11.368 214.525 10.664 214.525 9.816C214.525 9.144 214.701 8.536 215.053 7.992C215.405 7.432 215.917 6.992 216.589 6.672C217.277 6.336 218.109 6.168 219.085 6.168C219.773 6.168 220.397 6.256 220.957 6.432C221.533 6.592 222.101 6.832 222.661 7.152L222.541 9.672H220.957L220.525 7.656C220.077 7.464 219.581 7.368 219.037 7.368C218.397 7.368 217.901 7.504 217.549 7.776C217.197 8.048 217.021 8.416 217.021 8.88C217.021 9.312 217.165 9.664 217.453 9.936C217.757 10.192 218.317 10.456 219.133 10.728L220.093 11.016C221.261 11.416 222.093 11.912 222.589 12.504C223.085 13.096 223.333 13.808 223.333 14.64C223.333 15.712 222.893 16.6 222.013 17.304C221.149 17.992 219.909 18.336 218.293 18.336ZM227.986 11.328C227.986 10.064 227.866 8.888 227.626 7.8C227.386 6.712 226.994 5.632 226.45 4.56C225.906 3.472 225.17 2.312 224.242 1.08L225.106 0.335999C228.61 3.328 230.362 6.992 230.362 11.328C230.362 15.664 228.61 19.328 225.106 22.32L224.242 21.576C225.17 20.328 225.906 19.168 226.45 18.096C226.994 17.024 227.386 15.944 227.626 14.856C227.866 13.768 227.986 12.592 227.986 11.328Z" fill="white"/>
</svg>
