<svg width="233" height="24" viewBox="0 0 233 24" fill="none" xmlns="http://www.w3.org/2000/svg">
    <path d="M7.152 10.32H6.072C6.072 11.504 6.072 12.624 6.072 13.68C6.088 14.72 6.104 15.744 6.12 16.752H7.248C9.952 16.752 11.304 15.696 11.304 13.584C11.304 12.48 10.968 11.664 10.296 11.136C9.624 10.592 8.576 10.32 7.152 10.32ZM7.392 3.312H6.12C6.104 4.336 6.088 5.352 6.072 6.36C6.072 7.368 6.072 8.296 6.072 9.144H7.056C8.288 9.144 9.192 8.896 9.768 8.4C10.344 7.904 10.632 7.144 10.632 6.12C10.632 5.128 10.36 4.416 9.816 3.984C9.288 3.536 8.48 3.312 7.392 3.312ZM0.936 3.216V2.088H8.28C10.12 2.088 11.48 2.448 12.36 3.168C13.24 3.888 13.68 4.8 13.68 5.904C13.68 6.736 13.392 7.496 12.816 8.184C12.24 8.856 11.232 9.328 9.792 9.6C11.488 9.808 12.704 10.272 13.44 10.992C14.176 11.712 14.544 12.576 14.544 13.584C14.544 14.112 14.424 14.64 14.184 15.168C13.96 15.68 13.584 16.152 13.056 16.584C12.544 17.016 11.84 17.36 10.944 17.616C10.064 17.872 8.96 18 7.632 18H0.936V16.872L2.952 16.656C2.984 15.648 3 14.632 3 13.608C3 12.584 3 11.552 3 10.512V9.576C3 8.552 3 7.528 3 6.504C3 5.48 2.984 4.456 2.952 3.432L0.936 3.216ZM22.1173 18.336C21.0293 18.336 20.0453 18.096 19.1653 17.616C18.3013 17.136 17.6133 16.44 17.1013 15.528C16.5893 14.616 16.3333 13.528 16.3333 12.264C16.3333 10.984 16.5973 9.888 17.1253 8.976C17.6693 8.064 18.3813 7.368 19.2613 6.888C20.1413 6.408 21.0933 6.168 22.1173 6.168C23.1413 6.168 24.0933 6.408 24.9733 6.888C25.8533 7.368 26.5653 8.064 27.1093 8.976C27.6533 9.872 27.9253 10.968 27.9253 12.264C27.9253 13.544 27.6613 14.64 27.1333 15.552C26.6213 16.448 25.9253 17.136 25.0453 17.616C24.1813 18.096 23.2053 18.336 22.1173 18.336ZM22.1173 17.16C22.9813 17.16 23.6373 16.76 24.0853 15.96C24.5493 15.16 24.7813 13.936 24.7813 12.288C24.7813 8.992 23.8933 7.344 22.1173 7.344C20.3573 7.344 19.4773 8.992 19.4773 12.288C19.4773 13.936 19.7013 15.16 20.1493 15.96C20.5973 16.76 21.2533 17.16 22.1173 17.16ZM29.6447 18V17.016L31.1807 16.728C31.1967 16.12 31.2047 15.472 31.2047 14.784C31.2047 14.08 31.2047 13.472 31.2047 12.96V11.688C31.2047 11.032 31.1967 10.512 31.1807 10.128C31.1807 9.728 31.1647 9.288 31.1327 8.808L29.4527 8.592V7.68L33.4607 6.168L33.8447 6.408L34.0847 9.24C34.4527 8.248 34.9487 7.488 35.5727 6.96C36.1967 6.432 36.8207 6.168 37.4447 6.168C37.8767 6.168 38.2687 6.28 38.6207 6.504C38.9887 6.728 39.2287 7.048 39.3407 7.464C39.3247 8.056 39.1807 8.52 38.9087 8.856C38.6367 9.176 38.2607 9.336 37.7807 9.336C37.2047 9.336 36.6607 9.048 36.1487 8.472L35.9327 8.232C35.0847 8.936 34.4767 9.928 34.1087 11.208V12.96C34.1087 13.456 34.1087 14.048 34.1087 14.736C34.1087 15.408 34.1167 16.04 34.1327 16.632L36.1007 17.016V18H29.6447ZM45.6692 7.32C45.2852 7.32 44.9012 7.448 44.5172 7.704C44.1492 7.944 43.8292 8.344 43.5572 8.904C43.3012 9.464 43.1412 10.224 43.0772 11.184H46.3652C46.9412 11.184 47.3252 11.064 47.5172 10.824C47.7092 10.584 47.8052 10.248 47.8052 9.816C47.8052 9.08 47.5972 8.48 47.1812 8.016C46.7652 7.552 46.2612 7.32 45.6692 7.32ZM45.6692 18.336C44.5492 18.336 43.5652 18.096 42.7172 17.616C41.8692 17.136 41.2052 16.448 40.7252 15.552C40.2452 14.64 40.0052 13.56 40.0052 12.312C40.0052 11.032 40.2772 9.936 40.8212 9.024C41.3812 8.096 42.1012 7.392 42.9812 6.912C43.8772 6.416 44.8292 6.168 45.8372 6.168C46.7812 6.168 47.6052 6.368 48.3092 6.768C49.0132 7.168 49.5572 7.728 49.9412 8.448C50.3412 9.168 50.5412 10.016 50.5412 10.992C50.5412 11.504 50.4932 11.944 50.3972 12.312H43.0532C43.1172 13.688 43.4772 14.72 44.1332 15.408C44.8052 16.096 45.6452 16.44 46.6532 16.44C47.3572 16.44 47.9492 16.304 48.4292 16.032C48.9252 15.744 49.3732 15.376 49.7732 14.928L50.4692 15.552C50.0052 16.432 49.3652 17.12 48.5492 17.616C47.7492 18.096 46.7892 18.336 45.6692 18.336ZM55.4288 12.312C55.4288 13.768 55.7008 14.856 56.2448 15.576C56.8048 16.28 57.5088 16.632 58.3568 16.632C58.7728 16.632 59.1488 16.552 59.4848 16.392C59.8368 16.216 60.1648 15.968 60.4688 15.648V8.76C59.7648 8.152 59.0688 7.848 58.3808 7.848C57.5808 7.848 56.8848 8.208 56.2928 8.928C55.7168 9.648 55.4288 10.776 55.4288 12.312ZM60.7568 18.264L60.5648 16.752C60.1168 17.264 59.6208 17.656 59.0768 17.928C58.5328 18.2 57.9088 18.336 57.2048 18.336C56.2608 18.336 55.4208 18.096 54.6848 17.616C53.9648 17.136 53.3968 16.448 52.9808 15.552C52.5648 14.656 52.3568 13.592 52.3568 12.36C52.3568 11.096 52.5888 10 53.0527 9.072C53.5328 8.144 54.1648 7.432 54.9488 6.936C55.7488 6.424 56.6208 6.168 57.5648 6.168C58.1728 6.168 58.7168 6.28 59.1968 6.504C59.6928 6.728 60.1568 7.096 60.5888 7.608V2.664L58.7168 2.424V1.488L63.1088 0.407999L63.4688 0.623999L63.3728 4.008V16.752L64.9328 17.016V18L60.7568 18.264ZM77.9578 5.184L75.7498 11.832H80.1418L77.9578 5.184ZM70.9258 18V16.872L72.8938 16.584L77.9098 1.992H79.8778L84.8938 16.704L86.5258 16.896V18H79.5898V16.896L81.7018 16.632L80.5498 13.08H75.3178L74.1658 16.56L76.2538 16.872V18H70.9258ZM86.8539 23.592V22.608L88.4859 22.296C88.5019 21.592 88.5099 20.912 88.5099 20.256C88.5259 19.616 88.5339 18.992 88.5339 18.384V11.688C88.5339 11.032 88.5259 10.512 88.5099 10.128C88.5099 9.728 88.4939 9.288 88.4619 8.808L86.7819 8.592V7.68L90.7659 6.168L91.1499 6.408L91.2699 7.872C92.3579 6.736 93.5579 6.168 94.8699 6.168C95.7339 6.168 96.5179 6.408 97.2219 6.888C97.9259 7.352 98.4779 8.032 98.8779 8.928C99.2939 9.824 99.5019 10.912 99.5019 12.192C99.5019 13.456 99.2699 14.552 98.8059 15.48C98.3579 16.392 97.7579 17.096 97.0059 17.592C96.2539 18.088 95.4139 18.336 94.4859 18.336C93.8939 18.336 93.3419 18.224 92.8299 18C92.3179 17.776 91.8299 17.416 91.3659 16.92V18.36C91.3659 18.952 91.3659 19.568 91.3659 20.208C91.3819 20.864 91.3979 21.544 91.4139 22.248L93.2859 22.608V23.592H86.8539ZM93.7419 7.872C93.3739 7.872 92.9979 7.968 92.6139 8.16C92.2459 8.352 91.8539 8.608 91.4379 8.928V15.72C92.1099 16.344 92.8219 16.656 93.5739 16.656C94.3739 16.656 95.0459 16.312 95.5899 15.624C96.1499 14.92 96.4299 13.824 96.4299 12.336C96.4299 10.864 96.1819 9.752 95.6859 9C95.1899 8.248 94.5419 7.872 93.7419 7.872ZM107.029 7.32C106.645 7.32 106.261 7.448 105.877 7.704C105.509 7.944 105.189 8.344 104.917 8.904C104.661 9.464 104.501 10.224 104.437 11.184H107.725C108.301 11.184 108.685 11.064 108.877 10.824C109.069 10.584 109.165 10.248 109.165 9.816C109.165 9.08 108.957 8.48 108.541 8.016C108.125 7.552 107.621 7.32 107.029 7.32ZM107.029 18.336C105.909 18.336 104.925 18.096 104.077 17.616C103.229 17.136 102.565 16.448 102.085 15.552C101.605 14.64 101.365 13.56 101.365 12.312C101.365 11.032 101.637 9.936 102.181 9.024C102.741 8.096 103.461 7.392 104.341 6.912C105.237 6.416 106.189 6.168 107.197 6.168C108.141 6.168 108.965 6.368 109.669 6.768C110.373 7.168 110.917 7.728 111.301 8.448C111.701 9.168 111.901 10.016 111.901 10.992C111.901 11.504 111.853 11.944 111.757 12.312H104.413C104.477 13.688 104.837 14.72 105.493 15.408C106.165 16.096 107.005 16.44 108.013 16.44C108.717 16.44 109.309 16.304 109.789 16.032C110.285 15.744 110.733 15.376 111.133 14.928L111.829 15.552C111.365 16.432 110.725 17.12 109.909 17.616C109.109 18.096 108.149 18.336 107.029 18.336ZM117.827 3.216V2.088H125.075V3.216L123.011 3.456L126.059 10.128L129.179 3.504L127.259 3.216V2.088H132.491V3.216L130.571 3.528L126.707 11.448C126.707 12.504 126.707 13.448 126.707 14.28C126.707 15.096 126.715 15.88 126.731 16.632L129.011 16.872V18H121.307V16.872L123.562 16.632C123.579 15.928 123.587 15.192 123.587 14.424C123.587 13.64 123.587 12.76 123.587 11.784L119.483 3.384L117.827 3.216ZM140.694 18.288C140.054 18.288 139.534 18.128 139.134 17.808C138.734 17.488 138.462 17.048 138.318 16.488C137.726 17.096 137.19 17.56 136.71 17.88C136.23 18.184 135.606 18.336 134.838 18.336C133.942 18.336 133.182 18.08 132.558 17.568C131.95 17.04 131.646 16.288 131.646 15.312C131.646 14.8 131.766 14.328 132.006 13.896C132.246 13.448 132.67 13.032 133.278 12.648C133.902 12.264 134.79 11.888 135.942 11.52C136.262 11.408 136.622 11.296 137.022 11.184C137.422 11.072 137.83 10.96 138.246 10.848V10.176C138.246 9.056 138.086 8.304 137.766 7.92C137.462 7.52 136.918 7.32 136.134 7.32C135.99 7.32 135.83 7.328 135.654 7.344C135.494 7.36 135.326 7.384 135.15 7.416L134.862 8.736C134.798 9.312 134.63 9.736 134.358 10.008C134.086 10.28 133.75 10.416 133.35 10.416C132.582 10.416 132.134 10.056 132.006 9.336C132.15 8.376 132.662 7.608 133.542 7.032C134.438 6.456 135.614 6.168 137.07 6.168C138.462 6.168 139.478 6.504 140.118 7.176C140.758 7.832 141.078 8.944 141.078 10.512V15.744C141.078 16.464 141.31 16.824 141.774 16.824C142.078 16.824 142.358 16.648 142.614 16.296L143.166 16.776C142.878 17.32 142.534 17.712 142.134 17.952C141.75 18.176 141.27 18.288 140.694 18.288ZM134.454 14.808C134.454 15.432 134.614 15.888 134.934 16.176C135.27 16.448 135.678 16.584 136.158 16.584C136.43 16.584 136.702 16.52 136.974 16.392C137.246 16.264 137.67 16 138.246 15.6V11.808C137.91 11.92 137.59 12.024 137.286 12.12C136.998 12.216 136.75 12.304 136.542 12.384C135.742 12.704 135.19 13.072 134.886 13.488C134.598 13.904 134.454 14.344 134.454 14.808ZM149.731 18.336C148.643 18.336 147.667 18.104 146.803 17.64C145.939 17.16 145.259 16.472 144.763 15.576C144.283 14.664 144.043 13.568 144.043 12.288C144.043 10.992 144.315 9.888 144.859 8.976C145.419 8.064 146.155 7.368 147.067 6.888C147.979 6.408 148.971 6.168 150.043 6.168C150.827 6.168 151.531 6.32 152.155 6.624C152.795 6.912 153.307 7.304 153.691 7.8C154.091 8.296 154.331 8.856 154.411 9.48C154.219 10.184 153.763 10.536 153.043 10.536C152.147 10.536 151.627 9.976 151.483 8.856L151.171 7.416C151.027 7.384 150.883 7.36 150.739 7.344C150.595 7.328 150.451 7.32 150.307 7.32C149.731 7.32 149.195 7.488 148.699 7.824C148.219 8.144 147.827 8.648 147.523 9.336C147.219 10.024 147.067 10.896 147.067 11.952C147.067 13.408 147.395 14.52 148.051 15.288C148.723 16.056 149.595 16.44 150.667 16.44C151.307 16.44 151.883 16.296 152.395 16.008C152.907 15.72 153.339 15.328 153.691 14.832L154.411 15.36C154.011 16.336 153.411 17.08 152.611 17.592C151.827 18.088 150.867 18.336 149.731 18.336ZM155.501 18V17.016L157.085 16.704C157.101 16.112 157.109 15.472 157.109 14.784C157.109 14.08 157.109 13.472 157.109 12.96V2.664L155.357 2.424V1.488L159.653 0.407999L160.013 0.623999L159.917 4.008V8.304C161.149 6.88 162.517 6.168 164.021 6.168C165.061 6.168 165.869 6.512 166.445 7.2C167.021 7.888 167.309 8.976 167.309 10.464V12.96C167.309 13.504 167.309 14.12 167.309 14.808C167.309 15.496 167.317 16.136 167.333 16.728L168.797 17.016V18H162.869V17.016L164.405 16.704C164.421 16.112 164.429 15.48 164.429 14.808C164.429 14.12 164.429 13.504 164.429 12.96V10.68C164.429 9.736 164.301 9.088 164.045 8.736C163.805 8.368 163.381 8.184 162.773 8.184C161.877 8.184 160.949 8.64 159.989 9.552V12.96C159.989 13.488 159.989 14.096 159.989 14.784C159.989 15.472 159.997 16.12 160.013 16.728L161.429 17.016V18H155.501ZM174.377 18.336C173.417 18.336 172.665 18.096 172.121 17.616C171.577 17.136 171.305 16.368 171.305 15.312C171.305 14.944 171.305 14.6 171.305 14.28C171.321 13.944 171.329 13.544 171.329 13.08V7.968H169.553V6.72L171.497 6.48L172.409 3.192H174.353L174.257 6.504H177.137V7.968H174.233V15.048C174.233 15.64 174.345 16.072 174.569 16.344C174.809 16.616 175.121 16.752 175.505 16.752C175.937 16.752 176.425 16.552 176.969 16.152L177.545 16.752C177.241 17.248 176.825 17.64 176.297 17.928C175.769 18.2 175.129 18.336 174.377 18.336ZM192.051 18.408C190.483 18.408 189.075 18.08 187.827 17.424C186.595 16.752 185.619 15.792 184.899 14.544C184.195 13.28 183.843 11.776 183.843 10.032C183.843 8.288 184.211 6.792 184.947 5.544C185.699 4.296 186.699 3.344 187.947 2.688C189.211 2.016 190.603 1.68 192.123 1.68C192.907 1.68 193.691 1.768 194.475 1.944C195.259 2.12 196.035 2.424 196.803 2.856L196.899 6.456H195.243L194.667 3.48C194.315 3.288 193.963 3.152 193.611 3.072C193.259 2.992 192.907 2.952 192.555 2.952C191.595 2.952 190.707 3.216 189.891 3.744C189.091 4.256 188.443 5.04 187.947 6.096C187.467 7.136 187.227 8.456 187.227 10.056C187.227 11.64 187.451 12.96 187.899 14.016C188.363 15.056 188.987 15.832 189.771 16.344C190.555 16.856 191.435 17.112 192.411 17.112C193.227 17.112 194.051 16.928 194.883 16.56L195.459 13.632H197.091L196.995 17.208C196.307 17.592 195.547 17.888 194.715 18.096C193.883 18.304 192.995 18.408 192.051 18.408ZM198.53 18V17.016L200.162 16.704C200.178 16.08 200.186 15.456 200.186 14.832C200.202 14.208 200.21 13.584 200.21 12.96V2.664L198.458 2.424V1.488L202.826 0.407999L203.186 0.623999L203.09 4.008V12.96C203.09 13.584 203.09 14.208 203.09 14.832C203.106 15.456 203.122 16.08 203.138 16.704L204.77 17.016V18H198.53ZM214.723 18.216L214.531 16.104C213.363 17.592 212.003 18.336 210.451 18.336C209.459 18.336 208.659 18.016 208.051 17.376C207.459 16.72 207.171 15.6 207.187 14.016L207.283 8.088L205.723 7.752V6.816L209.923 6.312L210.211 6.576L210.091 9.936V13.92C210.091 14.816 210.227 15.448 210.499 15.816C210.787 16.168 211.195 16.344 211.723 16.344C212.171 16.344 212.627 16.216 213.091 15.96C213.571 15.704 214.027 15.376 214.459 14.976L214.531 8.088L213.019 7.752V6.864L217.123 6.312L217.435 6.576L217.363 9.936V16.704L218.827 17.016V18L214.723 18.216ZM220.165 18V17.016L221.725 16.728C221.741 16.136 221.749 15.496 221.749 14.808C221.765 14.104 221.773 13.488 221.773 12.96V2.64L220.021 2.424V1.488L224.317 0.407999L224.677 0.623999L224.581 4.008V7.872C225.653 6.736 226.845 6.168 228.157 6.168C229.021 6.168 229.805 6.4 230.509 6.864C231.213 7.328 231.765 8.008 232.165 8.904C232.581 9.784 232.789 10.864 232.789 12.144C232.789 13.408 232.557 14.504 232.093 15.432C231.645 16.36 231.045 17.08 230.293 17.592C229.541 18.088 228.701 18.336 227.773 18.336C227.149 18.336 226.565 18.216 226.021 17.976C225.493 17.736 224.997 17.336 224.533 16.776L224.221 18.288L220.165 18ZM227.005 7.872C226.637 7.872 226.253 7.968 225.853 8.16C225.469 8.352 225.069 8.624 224.653 8.976V15.624C225.389 16.312 226.141 16.656 226.909 16.656C227.693 16.656 228.357 16.296 228.901 15.576C229.445 14.856 229.717 13.76 229.717 12.288C229.717 10.8 229.461 9.696 228.949 8.976C228.453 8.24 227.805 7.872 227.005 7.872Z" fill="white"/>
</svg>
