<svg width="484" height="40" viewBox="0 0 484 40" fill="none" xmlns="http://www.w3.org/2000/svg">
    <path d="M8.68 30.68C7.18667 30.68 5.70667 30.4933 4.24 30.12C2.77333 29.7467 1.52 29.2267 0.48 28.56L0.72 22.8H3.8L4.6 27.64C5.21333 27.9067 5.84 28.12 6.48 28.28C7.12 28.4133 7.84 28.48 8.64 28.48C10.2933 28.48 11.5867 28.0933 12.52 27.32C13.48 26.52 13.96 25.4667 13.96 24.16C13.96 22.9867 13.6267 22.0667 12.96 21.4C12.2933 20.7333 11.2267 20.1067 9.76 19.52L8.12 18.84C5.93333 17.9067 4.18667 16.7867 2.88 15.48C1.6 14.1733 0.96 12.4667 0.96 10.36C0.96 8.78667 1.36 7.44 2.16 6.32C2.96 5.17333 4.06667 4.30667 5.48 3.72C6.92 3.10667 8.57333 2.8 10.44 2.8C11.8267 2.8 13.12 2.98667 14.32 3.36C15.52 3.73333 16.5733 4.24 17.48 4.88L17.2 10.28H14.16L13.36 5.64C12.4267 5.21333 11.4267 5 10.36 5C9.02667 5 7.89333 5.36 6.96 6.08C6.02667 6.77333 5.56 7.77333 5.56 9.08C5.56 10.2267 5.92 11.16 6.64 11.88C7.36 12.6 8.37333 13.2267 9.68 13.76L11.4 14.48C14.0133 15.5733 15.8667 16.7467 16.96 18C18.08 19.2533 18.64 20.8667 18.64 22.84C18.64 25.1867 17.7467 27.08 15.96 28.52C14.2 29.96 11.7733 30.68 8.68 30.68ZM28.1041 30.56C26.5041 30.56 25.2507 30.16 24.3441 29.36C23.4374 28.56 22.9841 27.28 22.9841 25.52C22.9841 24.9067 22.9841 24.3333 22.9841 23.8C23.0107 23.24 23.0241 22.5733 23.0241 21.8V13.28H20.0641V11.2L23.3041 10.8L24.8241 5.32H28.0641L27.9041 10.84H32.7041V13.28H27.8641V25.08C27.8641 26.0667 28.0507 26.7867 28.4241 27.24C28.8241 27.6933 29.3441 27.92 29.9841 27.92C30.7041 27.92 31.5174 27.5867 32.4241 26.92L33.3841 27.92C32.8774 28.7467 32.1841 29.4 31.3041 29.88C30.4241 30.3333 29.3574 30.56 28.1041 30.56ZM49.8969 30.48C48.8302 30.48 47.9635 30.2133 47.2969 29.68C46.6302 29.1467 46.1769 28.4133 45.9369 27.48C44.9502 28.4933 44.0569 29.2667 43.2569 29.8C42.4569 30.3067 41.4169 30.56 40.1369 30.56C38.6435 30.56 37.3769 30.1333 36.3369 29.28C35.3235 28.4 34.8169 27.1467 34.8169 25.52C34.8169 24.6667 35.0169 23.88 35.4169 23.16C35.8169 22.4133 36.5235 21.72 37.5369 21.08C38.5769 20.44 40.0569 19.8133 41.9769 19.2C42.5102 19.0133 43.1102 18.8267 43.7769 18.64C44.4435 18.4533 45.1235 18.2667 45.8169 18.08V16.96C45.8169 15.0933 45.5502 13.84 45.0169 13.2C44.5102 12.5333 43.6035 12.2 42.2969 12.2C42.0569 12.2 41.7902 12.2133 41.4969 12.24C41.2302 12.2667 40.9502 12.3067 40.6569 12.36L40.1769 14.56C40.0702 15.52 39.7902 16.2267 39.3369 16.68C38.8835 17.1333 38.3235 17.36 37.6569 17.36C36.3769 17.36 35.6302 16.76 35.4169 15.56C35.6569 13.96 36.5102 12.68 37.9769 11.72C39.4702 10.76 41.4302 10.28 43.8569 10.28C46.1769 10.28 47.8702 10.84 48.9369 11.96C50.0035 13.0533 50.5369 14.9067 50.5369 17.52V26.24C50.5369 27.44 50.9235 28.04 51.6969 28.04C52.2035 28.04 52.6702 27.7467 53.0969 27.16L54.0169 27.96C53.5369 28.8667 52.9635 29.52 52.2969 29.92C51.6569 30.2933 50.8569 30.48 49.8969 30.48ZM39.4969 24.68C39.4969 25.72 39.7635 26.48 40.2969 26.96C40.8569 27.4133 41.5369 27.64 42.3369 27.64C42.7902 27.64 43.2435 27.5333 43.6969 27.32C44.1502 27.1067 44.8569 26.6667 45.8169 26V19.68C45.2569 19.8667 44.7235 20.04 44.2169 20.2C43.7369 20.36 43.3235 20.5067 42.9769 20.64C41.6435 21.1733 40.7235 21.7867 40.2169 22.48C39.7369 23.1733 39.4969 23.9067 39.4969 24.68ZM55.1181 30V28.36L57.8381 27.84C57.8648 26.8267 57.8781 25.76 57.8781 24.64C57.9048 23.52 57.9181 22.5067 57.9181 21.6V4.44L54.9981 4.04V2.48L62.2781 0.679998L62.8781 1.04L62.7181 6.68V19.84L69.3581 13.12L66.3581 12.52L66.3981 10.84H75.8381V12.52L72.1981 13.04L68.1581 16.96L74.3181 27.8L76.9181 28.36V30H70.1581L64.7981 20.24L62.7181 22.28C62.7181 23.1867 62.7181 24.1333 62.7181 25.12C62.7448 26.08 62.7715 27 62.7981 27.88L65.4781 28.36V30H55.1181ZM78.2488 30V28.36L80.8888 27.84C80.9154 26.8533 80.9288 25.7867 80.9288 24.64C80.9288 23.4667 80.9288 22.4533 80.9288 21.6V19.72C80.9288 18.6267 80.9154 17.72 80.8888 17C80.8888 16.2533 80.8621 15.48 80.8088 14.68L77.9688 14.32V12.8L85.1688 10.28L85.8088 10.68L85.6888 16.32V21.6C85.6888 22.4533 85.6888 23.4667 85.6888 24.64C85.6888 25.7867 85.7021 26.8667 85.7288 27.88L88.1688 28.36V30H78.2488ZM83.2888 6.56C82.4354 6.56 81.7154 6.29333 81.1288 5.76C80.5421 5.22667 80.2488 4.54667 80.2488 3.72C80.2488 2.86667 80.5421 2.17333 81.1288 1.64C81.7154 1.10667 82.4354 0.839999 83.2888 0.839999C84.1421 0.839999 84.8488 1.10667 85.4088 1.64C85.9954 2.17333 86.2888 2.86667 86.2888 3.72C86.2888 4.54667 85.9954 5.22667 85.4088 5.76C84.8488 6.29333 84.1421 6.56 83.2888 6.56ZM90.5944 30V28.36L93.1944 27.84C93.221 26.8533 93.2344 25.7867 93.2344 24.64C93.2344 23.4667 93.2344 22.4533 93.2344 21.6V19.48C93.2344 18.3867 93.221 17.52 93.1944 16.88C93.1944 16.2133 93.1677 15.48 93.1144 14.68L90.3144 14.32V12.8L96.9944 10.28L97.6344 10.68L97.9144 13.76C99.9677 11.44 102.234 10.28 104.714 10.28C106.448 10.28 107.781 10.8533 108.714 12C109.674 13.1467 110.154 14.96 110.154 17.44V21.6C110.154 22.5067 110.154 23.5333 110.154 24.68C110.154 25.8267 110.168 26.8933 110.194 27.88L112.634 28.36V30H102.754V28.36L105.314 27.84C105.341 26.8533 105.354 25.8 105.354 24.68C105.354 23.5333 105.354 22.5067 105.354 21.6V17.8C105.354 16.2267 105.141 15.1467 104.714 14.56C104.288 13.9467 103.568 13.64 102.554 13.64C101.141 13.64 99.6477 14.2933 98.0744 15.6V21.6C98.0744 22.48 98.0744 23.4933 98.0744 24.64C98.0744 25.7867 98.0877 26.8667 98.1144 27.88L100.474 28.36V30H90.5944ZM123.328 21.52C124.448 21.52 125.301 21.08 125.888 20.2C126.474 19.32 126.768 18.1467 126.768 16.68C126.768 15.2667 126.474 14.1467 125.888 13.32C125.328 12.4667 124.514 12.04 123.448 12.04C122.381 12.04 121.541 12.48 120.928 13.36C120.341 14.2133 120.048 15.36 120.048 16.8C120.048 18.24 120.328 19.3867 120.888 20.24C121.448 21.0933 122.261 21.52 123.328 21.52ZM118.288 33.72C118.288 34.9467 118.741 35.84 119.648 36.4C120.554 36.96 121.848 37.24 123.528 37.24C125.634 37.24 127.221 36.8933 128.288 36.2C129.381 35.5067 129.928 34.6667 129.928 33.68C129.928 32.9333 129.661 32.2933 129.128 31.76C128.621 31.2267 127.728 30.96 126.448 30.96H122.008C121.021 30.96 120.141 30.88 119.368 30.72C118.648 31.68 118.288 32.68 118.288 33.72ZM123.408 23.28C122.208 23.28 121.101 23.1333 120.088 22.84C119.581 23.5333 119.328 24.2667 119.328 25.04C119.328 25.5467 119.488 25.9467 119.808 26.24C120.154 26.5333 120.768 26.68 121.648 26.68H126.648C129.261 26.68 131.128 27.1733 132.248 28.16C133.368 29.1467 133.928 30.48 133.928 32.16C133.928 33.4133 133.514 34.5867 132.688 35.68C131.888 36.7733 130.688 37.6533 129.088 38.32C127.514 38.9867 125.541 39.32 123.168 39.32C121.114 39.32 119.461 39.1067 118.208 38.68C116.981 38.2533 116.088 37.68 115.528 36.96C114.994 36.24 114.728 35.44 114.728 34.56C114.728 33.7067 115.008 32.92 115.568 32.2C116.128 31.5067 117.048 30.8533 118.328 30.24C117.501 29.9467 116.888 29.5333 116.488 29C116.088 28.44 115.888 27.8 115.888 27.08C115.888 26.3067 116.114 25.5467 116.568 24.8C117.048 24.0267 117.781 23.1867 118.768 22.28C116.661 21.2133 115.608 19.3867 115.608 16.8C115.608 14.8267 116.301 13.2533 117.688 12.08C119.074 10.88 120.981 10.28 123.408 10.28C125.834 10.28 127.728 10.84 129.088 11.96L133.608 10.24L134.208 10.64V13.44H130.328C130.888 14.3467 131.168 15.4667 131.168 16.8C131.168 18.7467 130.488 20.32 129.128 21.52C127.768 22.6933 125.861 23.28 123.408 23.28ZM161.644 5.36V3.48H171.724V5.36L168.324 5.88V30.16H165.964L150.884 9.44V27.56L155.284 28.12V30H145.204V28.12L148.604 27.64V6.28L148.124 5.64L145.324 5.36V3.48H152.884L166.044 21.56V5.88L161.644 5.36ZM174.271 5.36V3.48H194.551L194.831 10.48H192.031L191.191 5.6H182.951C182.924 7.28 182.898 8.96 182.871 10.64C182.871 12.2933 182.871 13.8533 182.871 15.32H188.271L188.791 11.84H190.831V21.28H188.791L188.231 17.44H182.871C182.871 19.3333 182.871 21.12 182.871 22.8C182.898 24.4533 182.924 26.0933 182.951 27.72L186.591 28.12V30H174.271V28.12L177.631 27.76C177.684 26.1067 177.711 24.4267 177.711 22.72C177.711 21.0133 177.711 19.3067 177.711 17.6V15.88C177.711 14.2 177.711 12.52 177.711 10.84C177.711 9.13333 177.684 7.42666 177.631 5.72L174.271 5.36ZM197.066 10.76L197.306 3.48H219.986L220.186 10.76H217.426L216.586 5.6H211.306C211.279 7.28 211.252 8.98667 211.226 10.72C211.226 12.4267 211.226 14.1467 211.226 15.88V17.6C211.226 19.28 211.226 20.9733 211.226 22.68C211.252 24.36 211.279 26.04 211.306 27.72L215.066 28.12V30H202.186V28.12L205.946 27.72C205.999 26.0667 206.026 24.4 206.026 22.72C206.026 21.0133 206.026 19.3067 206.026 17.6V15.88C206.026 14.1733 206.026 12.4667 206.026 10.76C206.026 9.02667 205.999 7.30667 205.946 5.6H200.706L199.866 10.76H197.066ZM237.87 30.56C236.27 30.56 235.016 30.16 234.11 29.36C233.203 28.56 232.75 27.28 232.75 25.52C232.75 24.9067 232.75 24.3333 232.75 23.8C232.776 23.24 232.79 22.5733 232.79 21.8V13.28H229.83V11.2L233.07 10.8L234.59 5.32H237.83L237.67 10.84H242.47V13.28H237.63V25.08C237.63 26.0667 237.816 26.7867 238.19 27.24C238.59 27.6933 239.11 27.92 239.75 27.92C240.47 27.92 241.283 27.5867 242.19 26.92L243.15 27.92C242.643 28.7467 241.95 29.4 241.07 29.88C240.19 30.3333 239.123 30.56 237.87 30.56ZM254.183 30.56C252.369 30.56 250.729 30.16 249.263 29.36C247.823 28.56 246.676 27.4 245.823 25.88C244.969 24.36 244.543 22.5467 244.543 20.44C244.543 18.3067 244.983 16.48 245.863 14.96C246.769 13.44 247.956 12.28 249.423 11.48C250.889 10.68 252.476 10.28 254.183 10.28C255.889 10.28 257.476 10.68 258.943 11.48C260.409 12.28 261.596 13.44 262.503 14.96C263.409 16.4533 263.863 18.28 263.863 20.44C263.863 22.5733 263.423 24.4 262.543 25.92C261.689 27.4133 260.529 28.56 259.063 29.36C257.623 30.16 255.996 30.56 254.183 30.56ZM254.183 28.6C255.623 28.6 256.716 27.9333 257.463 26.6C258.236 25.2667 258.623 23.2267 258.623 20.48C258.623 14.9867 257.143 12.24 254.183 12.24C251.249 12.24 249.783 14.9867 249.783 20.48C249.783 23.2267 250.156 25.2667 250.903 26.6C251.649 27.9333 252.743 28.6 254.183 28.6ZM283.913 21.52C285.033 21.52 285.887 21.08 286.473 20.2C287.06 19.32 287.353 18.1467 287.353 16.68C287.353 15.2667 287.06 14.1467 286.473 13.32C285.913 12.4667 285.1 12.04 284.033 12.04C282.967 12.04 282.127 12.48 281.513 13.36C280.927 14.2133 280.633 15.36 280.633 16.8C280.633 18.24 280.913 19.3867 281.473 20.24C282.033 21.0933 282.847 21.52 283.913 21.52ZM278.873 33.72C278.873 34.9467 279.327 35.84 280.233 36.4C281.14 36.96 282.433 37.24 284.113 37.24C286.22 37.24 287.807 36.8933 288.873 36.2C289.967 35.5067 290.513 34.6667 290.513 33.68C290.513 32.9333 290.247 32.2933 289.713 31.76C289.207 31.2267 288.313 30.96 287.033 30.96H282.593C281.607 30.96 280.727 30.88 279.953 30.72C279.233 31.68 278.873 32.68 278.873 33.72ZM283.993 23.28C282.793 23.28 281.687 23.1333 280.673 22.84C280.167 23.5333 279.913 24.2667 279.913 25.04C279.913 25.5467 280.073 25.9467 280.393 26.24C280.74 26.5333 281.353 26.68 282.233 26.68H287.233C289.847 26.68 291.713 27.1733 292.833 28.16C293.953 29.1467 294.513 30.48 294.513 32.16C294.513 33.4133 294.1 34.5867 293.273 35.68C292.473 36.7733 291.273 37.6533 289.673 38.32C288.1 38.9867 286.127 39.32 283.753 39.32C281.7 39.32 280.047 39.1067 278.793 38.68C277.567 38.2533 276.673 37.68 276.113 36.96C275.58 36.24 275.313 35.44 275.313 34.56C275.313 33.7067 275.593 32.92 276.153 32.2C276.713 31.5067 277.633 30.8533 278.913 30.24C278.087 29.9467 277.473 29.5333 277.073 29C276.673 28.44 276.473 27.8 276.473 27.08C276.473 26.3067 276.7 25.5467 277.153 24.8C277.633 24.0267 278.367 23.1867 279.353 22.28C277.247 21.2133 276.193 19.3867 276.193 16.8C276.193 14.8267 276.887 13.2533 278.273 12.08C279.66 10.88 281.567 10.28 283.993 10.28C286.42 10.28 288.313 10.84 289.673 11.96L294.193 10.24L294.793 10.64V13.44H290.913C291.473 14.3467 291.753 15.4667 291.753 16.8C291.753 18.7467 291.073 20.32 289.713 21.52C288.353 22.6933 286.447 23.28 283.993 23.28ZM305.858 12.2C305.218 12.2 304.578 12.4133 303.938 12.84C303.324 13.24 302.791 13.9067 302.338 14.84C301.911 15.7733 301.644 17.04 301.538 18.64H307.018C307.978 18.64 308.618 18.44 308.938 18.04C309.258 17.64 309.418 17.08 309.418 16.36C309.418 15.1333 309.071 14.1333 308.378 13.36C307.684 12.5867 306.844 12.2 305.858 12.2ZM305.858 30.56C303.991 30.56 302.351 30.16 300.938 29.36C299.524 28.56 298.418 27.4133 297.618 25.92C296.818 24.4 296.418 22.6 296.418 20.52C296.418 18.3867 296.871 16.56 297.778 15.04C298.711 13.4933 299.911 12.32 301.378 11.52C302.871 10.6933 304.458 10.28 306.138 10.28C307.711 10.28 309.084 10.6133 310.258 11.28C311.431 11.9467 312.338 12.88 312.978 14.08C313.644 15.28 313.978 16.6933 313.978 18.32C313.978 19.1733 313.898 19.9067 313.738 20.52H301.498C301.604 22.8133 302.204 24.5333 303.298 25.68C304.418 26.8267 305.818 27.4 307.498 27.4C308.671 27.4 309.658 27.1733 310.458 26.72C311.284 26.24 312.031 25.6267 312.698 24.88L313.858 25.92C313.084 27.3867 312.018 28.5333 310.658 29.36C309.324 30.16 307.724 30.56 305.858 30.56ZM323.963 30.56C322.363 30.56 321.11 30.16 320.203 29.36C319.297 28.56 318.843 27.28 318.843 25.52C318.843 24.9067 318.843 24.3333 318.843 23.8C318.87 23.24 318.883 22.5733 318.883 21.8V13.28H315.923V11.2L319.163 10.8L320.683 5.32H323.923L323.763 10.84H328.563V13.28H323.723V25.08C323.723 26.0667 323.91 26.7867 324.283 27.24C324.683 27.6933 325.203 27.92 325.843 27.92C326.563 27.92 327.377 27.5867 328.283 26.92L329.243 27.92C328.737 28.7467 328.043 29.4 327.163 29.88C326.283 30.3333 325.217 30.56 323.963 30.56ZM339.502 30V28.36L342.062 27.88C342.088 26.8667 342.102 25.7867 342.102 24.64C342.102 23.4667 342.102 22.4533 342.102 21.6V19.48C342.102 18.3867 342.088 17.52 342.062 16.88C342.062 16.2133 342.035 15.48 341.982 14.68L339.182 14.32V12.8L345.862 10.28L346.502 10.68L346.902 15.4C347.515 13.7467 348.342 12.48 349.382 11.6C350.422 10.72 351.462 10.28 352.502 10.28C353.222 10.28 353.875 10.4667 354.462 10.84C355.075 11.2133 355.475 11.7467 355.662 12.44C355.635 13.4267 355.395 14.2 354.942 14.76C354.488 15.2933 353.862 15.56 353.062 15.56C352.102 15.56 351.195 15.08 350.342 14.12L349.982 13.72C348.568 14.8933 347.555 16.5467 346.942 18.68V21.6C346.942 22.4267 346.942 23.4133 346.942 24.56C346.942 25.68 346.955 26.7333 346.982 27.72L350.262 28.36V30H339.502ZM366.209 12.2C365.569 12.2 364.929 12.4133 364.289 12.84C363.676 13.24 363.142 13.9067 362.689 14.84C362.262 15.7733 361.996 17.04 361.889 18.64H367.369C368.329 18.64 368.969 18.44 369.289 18.04C369.609 17.64 369.769 17.08 369.769 16.36C369.769 15.1333 369.422 14.1333 368.729 13.36C368.036 12.5867 367.196 12.2 366.209 12.2ZM366.209 30.56C364.342 30.56 362.702 30.16 361.289 29.36C359.876 28.56 358.769 27.4133 357.969 25.92C357.169 24.4 356.769 22.6 356.769 20.52C356.769 18.3867 357.222 16.56 358.129 15.04C359.062 13.4933 360.262 12.32 361.729 11.52C363.222 10.6933 364.809 10.28 366.489 10.28C368.062 10.28 369.436 10.6133 370.609 11.28C371.782 11.9467 372.689 12.88 373.329 14.08C373.996 15.28 374.329 16.6933 374.329 18.32C374.329 19.1733 374.249 19.9067 374.089 20.52H361.849C361.956 22.8133 362.556 24.5333 363.649 25.68C364.769 26.8267 366.169 27.4 367.849 27.4C369.022 27.4 370.009 27.1733 370.809 26.72C371.636 26.24 372.382 25.6267 373.049 24.88L374.209 25.92C373.436 27.3867 372.369 28.5333 371.009 29.36C369.676 30.16 368.076 30.56 366.209 30.56ZM399.041 12.52V10.84H406.361V12.52L404.161 12.92L398.201 30.16H395.961L391.081 16.6L386.121 30.16H383.921L377.561 12.84L375.481 12.52V10.84H385.281V12.52L382.561 12.92L386.241 24.2L390.241 12.92L387.561 12.52V10.84H396.841V12.52L394.241 12.96L398.201 24.08L401.681 12.96L399.041 12.52ZM422.436 30.48C421.369 30.48 420.503 30.2133 419.836 29.68C419.169 29.1467 418.716 28.4133 418.476 27.48C417.489 28.4933 416.596 29.2667 415.796 29.8C414.996 30.3067 413.956 30.56 412.676 30.56C411.183 30.56 409.916 30.1333 408.876 29.28C407.863 28.4 407.356 27.1467 407.356 25.52C407.356 24.6667 407.556 23.88 407.956 23.16C408.356 22.4133 409.063 21.72 410.076 21.08C411.116 20.44 412.596 19.8133 414.516 19.2C415.049 19.0133 415.649 18.8267 416.316 18.64C416.983 18.4533 417.663 18.2667 418.356 18.08V16.96C418.356 15.0933 418.089 13.84 417.556 13.2C417.049 12.5333 416.143 12.2 414.836 12.2C414.596 12.2 414.329 12.2133 414.036 12.24C413.769 12.2667 413.489 12.3067 413.196 12.36L412.716 14.56C412.609 15.52 412.329 16.2267 411.876 16.68C411.423 17.1333 410.863 17.36 410.196 17.36C408.916 17.36 408.169 16.76 407.956 15.56C408.196 13.96 409.049 12.68 410.516 11.72C412.009 10.76 413.969 10.28 416.396 10.28C418.716 10.28 420.409 10.84 421.476 11.96C422.543 13.0533 423.076 14.9067 423.076 17.52V26.24C423.076 27.44 423.463 28.04 424.236 28.04C424.743 28.04 425.209 27.7467 425.636 27.16L426.556 27.96C426.076 28.8667 425.503 29.52 424.836 29.92C424.196 30.2933 423.396 30.48 422.436 30.48ZM412.036 24.68C412.036 25.72 412.303 26.48 412.836 26.96C413.396 27.4133 414.076 27.64 414.876 27.64C415.329 27.64 415.783 27.5333 416.236 27.32C416.689 27.1067 417.396 26.6667 418.356 26V19.68C417.796 19.8667 417.263 20.04 416.756 20.2C416.276 20.36 415.863 20.5067 415.516 20.64C414.183 21.1733 413.263 21.7867 412.756 22.48C412.276 23.1733 412.036 23.9067 412.036 24.68ZM427.9 30V28.36L430.46 27.88C430.487 26.8667 430.5 25.7867 430.5 24.64C430.5 23.4667 430.5 22.4533 430.5 21.6V19.48C430.5 18.3867 430.487 17.52 430.46 16.88C430.46 16.2133 430.433 15.48 430.38 14.68L427.58 14.32V12.8L434.26 10.28L434.9 10.68L435.3 15.4C435.913 13.7467 436.74 12.48 437.78 11.6C438.82 10.72 439.86 10.28 440.9 10.28C441.62 10.28 442.273 10.4667 442.86 10.84C443.473 11.2133 443.873 11.7467 444.06 12.44C444.033 13.4267 443.793 14.2 443.34 14.76C442.887 15.2933 442.26 15.56 441.46 15.56C440.5 15.56 439.593 15.08 438.74 14.12L438.38 13.72C436.967 14.8933 435.953 16.5467 435.34 18.68V21.6C435.34 22.4267 435.34 23.4133 435.34 24.56C435.34 25.68 435.353 26.7333 435.38 27.72L438.66 28.36V30H427.9ZM450.288 20.52C450.288 22.9467 450.741 24.76 451.648 25.96C452.581 27.1333 453.754 27.72 455.168 27.72C455.861 27.72 456.488 27.5867 457.048 27.32C457.634 27.0267 458.181 26.6133 458.688 26.08V14.6C457.514 13.5867 456.354 13.08 455.208 13.08C453.874 13.08 452.714 13.68 451.728 14.88C450.768 16.08 450.288 17.96 450.288 20.52ZM459.168 30.44L458.848 27.92C458.101 28.7733 457.274 29.4267 456.368 29.88C455.461 30.3333 454.421 30.56 453.248 30.56C451.674 30.56 450.274 30.16 449.048 29.36C447.848 28.56 446.901 27.4133 446.208 25.92C445.514 24.4267 445.168 22.6533 445.168 20.6C445.168 18.4933 445.554 16.6667 446.327 15.12C447.128 13.5733 448.181 12.3867 449.488 11.56C450.821 10.7067 452.274 10.28 453.848 10.28C454.861 10.28 455.768 10.4667 456.568 10.84C457.394 11.2133 458.168 11.8267 458.888 12.68V4.44L455.768 4.04V2.48L463.088 0.679998L463.688 1.04L463.528 6.68V27.92L466.128 28.36V30L459.168 30.44ZM474.971 30.56C473.744 30.56 472.611 30.4133 471.571 30.12C470.557 29.8533 469.544 29.44 468.531 28.88L468.491 24.24H471.171L471.891 27.96C472.851 28.36 473.891 28.56 475.011 28.56C476.371 28.56 477.384 28.32 478.051 27.84C478.717 27.36 479.051 26.6933 479.051 25.84C479.051 25.0933 478.784 24.4933 478.251 24.04C477.717 23.56 476.811 23.1067 475.531 22.68L473.531 22C472.037 21.52 470.851 20.8133 469.971 19.88C469.117 18.9467 468.691 17.7733 468.691 16.36C468.691 15.24 468.984 14.2267 469.571 13.32C470.157 12.3867 471.011 11.6533 472.131 11.12C473.277 10.56 474.664 10.28 476.291 10.28C477.437 10.28 478.477 10.4267 479.411 10.72C480.371 10.9867 481.317 11.3867 482.251 11.92L482.051 16.12H479.411L478.691 12.76C477.944 12.44 477.117 12.28 476.211 12.28C475.144 12.28 474.317 12.5067 473.731 12.96C473.144 13.4133 472.851 14.0267 472.851 14.8C472.851 15.52 473.091 16.1067 473.571 16.56C474.077 16.9867 475.011 17.4267 476.371 17.88L477.971 18.36C479.917 19.0267 481.304 19.8533 482.131 20.84C482.957 21.8267 483.371 23.0133 483.371 24.4C483.371 26.1867 482.637 27.6667 481.171 28.84C479.731 29.9867 477.664 30.56 474.971 30.56Z" fill="white"/>
</svg>
